G04 EAGLE Gerber RS-274X export*
G75*
%MOMM*%
%FSLAX34Y34*%
%LPD*%
%INSilkscreen Bottom*%
%IPPOS*%
%AMOC8*
5,1,8,0,0,1.08239X$1,22.5*%
G01*
%ADD10C,0.101600*%
%ADD11C,0.152400*%
%ADD12C,0.200000*%
%ADD13C,0.050800*%
%ADD14C,0.100000*%
%ADD15C,0.200000*%

G36*
X109140Y81472D02*
X109140Y81472D01*
X109192Y81477D01*
X109214Y81491D01*
X109225Y81493D01*
X109233Y81502D01*
X109262Y81520D01*
X110151Y82282D01*
X110152Y82283D01*
X110154Y82285D01*
X111297Y83301D01*
X111300Y83305D01*
X111308Y83311D01*
X112197Y84200D01*
X112200Y84204D01*
X112207Y84211D01*
X113223Y85354D01*
X113239Y85386D01*
X113253Y85402D01*
X113255Y85418D01*
X113279Y85457D01*
X113279Y85470D01*
X113284Y85481D01*
X113277Y85540D01*
X113276Y85598D01*
X113268Y85613D01*
X113267Y85621D01*
X113259Y85631D01*
X113239Y85671D01*
X109653Y90617D01*
X110459Y91998D01*
X110460Y92004D01*
X110467Y92013D01*
X110975Y93029D01*
X110977Y93041D01*
X110991Y93069D01*
X111372Y94339D01*
X111372Y94340D01*
X111373Y94342D01*
X111836Y95966D01*
X117901Y96956D01*
X117960Y96984D01*
X118020Y97010D01*
X118023Y97014D01*
X118028Y97017D01*
X118063Y97072D01*
X118100Y97126D01*
X118101Y97133D01*
X118103Y97136D01*
X118103Y97145D01*
X118113Y97206D01*
X118113Y102794D01*
X118095Y102857D01*
X118079Y102921D01*
X118076Y102924D01*
X118074Y102929D01*
X118025Y102973D01*
X117978Y103018D01*
X117971Y103020D01*
X117969Y103023D01*
X117960Y103024D01*
X117901Y103044D01*
X111815Y104038D01*
X111496Y104783D01*
X111119Y106163D01*
X111113Y106173D01*
X111105Y106202D01*
X110343Y107853D01*
X110337Y107860D01*
X110330Y107877D01*
X109652Y109008D01*
X113116Y114081D01*
X113136Y114140D01*
X113159Y114199D01*
X113157Y114207D01*
X113160Y114215D01*
X113145Y114276D01*
X113134Y114337D01*
X113127Y114346D01*
X113126Y114352D01*
X113117Y114360D01*
X113086Y114403D01*
X112457Y115033D01*
X111445Y116170D01*
X111441Y116173D01*
X111435Y116181D01*
X110165Y117451D01*
X110156Y117456D01*
X110141Y117472D01*
X108998Y118361D01*
X108951Y118380D01*
X108908Y118406D01*
X108887Y118405D01*
X108868Y118413D01*
X108818Y118404D01*
X108767Y118403D01*
X108741Y118389D01*
X108729Y118387D01*
X108720Y118379D01*
X108694Y118366D01*
X103747Y114779D01*
X102111Y115714D01*
X102100Y115716D01*
X102079Y115729D01*
X100809Y116237D01*
X100804Y116238D01*
X100795Y116242D01*
X99035Y116829D01*
X98044Y122775D01*
X98021Y122822D01*
X98005Y122873D01*
X97991Y122885D01*
X97983Y122902D01*
X97938Y122930D01*
X97898Y122964D01*
X97873Y122971D01*
X97863Y122977D01*
X97851Y122976D01*
X97819Y122985D01*
X96549Y123112D01*
X96541Y123111D01*
X96524Y123113D01*
X93603Y123113D01*
X93596Y123111D01*
X93582Y123112D01*
X92058Y122985D01*
X92008Y122966D01*
X91957Y122955D01*
X91944Y122942D01*
X91926Y122935D01*
X91895Y122893D01*
X91857Y122855D01*
X91849Y122831D01*
X91842Y122822D01*
X91841Y122810D01*
X91830Y122779D01*
X90717Y116721D01*
X89738Y116503D01*
X89727Y116497D01*
X89690Y116487D01*
X87404Y115471D01*
X87398Y115467D01*
X87384Y115461D01*
X86380Y114904D01*
X81303Y118495D01*
X81261Y118509D01*
X81224Y118532D01*
X81196Y118532D01*
X81170Y118541D01*
X81127Y118531D01*
X81083Y118530D01*
X81045Y118512D01*
X81033Y118509D01*
X81027Y118502D01*
X81010Y118494D01*
X80121Y117859D01*
X80116Y117853D01*
X80101Y117844D01*
X79085Y116955D01*
X79082Y116950D01*
X79073Y116943D01*
X77803Y115673D01*
X77799Y115665D01*
X77784Y115652D01*
X76768Y114382D01*
X76748Y114334D01*
X76721Y114290D01*
X76722Y114270D01*
X76714Y114252D01*
X76723Y114201D01*
X76724Y114149D01*
X76736Y114124D01*
X76738Y114113D01*
X76746Y114104D01*
X76760Y114076D01*
X80227Y109248D01*
X80172Y109138D01*
X79287Y107621D01*
X79285Y107612D01*
X79275Y107598D01*
X78640Y106201D01*
X78639Y106191D01*
X78629Y106170D01*
X78166Y104666D01*
X72094Y103551D01*
X72049Y103528D01*
X72000Y103513D01*
X71987Y103497D01*
X71968Y103488D01*
X71942Y103444D01*
X71909Y103406D01*
X71901Y103378D01*
X71895Y103367D01*
X71896Y103356D01*
X71888Y103327D01*
X71761Y102057D01*
X71761Y102056D01*
X71761Y102055D01*
X71634Y100658D01*
X71635Y100650D01*
X71633Y100635D01*
X71633Y97714D01*
X71650Y97653D01*
X71664Y97592D01*
X71670Y97586D01*
X71672Y97579D01*
X71719Y97537D01*
X71764Y97492D01*
X71773Y97489D01*
X71777Y97485D01*
X71788Y97483D01*
X71840Y97465D01*
X77903Y96351D01*
X78371Y94478D01*
X78375Y94472D01*
X78377Y94459D01*
X78885Y92935D01*
X78892Y92924D01*
X78906Y92887D01*
X79714Y91502D01*
X76123Y86301D01*
X76107Y86255D01*
X76084Y86213D01*
X76085Y86190D01*
X76078Y86167D01*
X76089Y86121D01*
X76092Y86073D01*
X76109Y86043D01*
X76112Y86030D01*
X76119Y86023D01*
X76131Y86002D01*
X77020Y84859D01*
X77025Y84855D01*
X77031Y84846D01*
X78047Y83703D01*
X78051Y83700D01*
X78057Y83692D01*
X78946Y82803D01*
X78951Y82800D01*
X78958Y82791D01*
X79974Y81902D01*
X80025Y81879D01*
X80072Y81849D01*
X80088Y81849D01*
X80102Y81843D01*
X80157Y81850D01*
X80213Y81850D01*
X80232Y81859D01*
X80242Y81861D01*
X80252Y81869D01*
X80286Y81886D01*
X85224Y85342D01*
X86605Y84422D01*
X86617Y84418D01*
X86648Y84399D01*
X88172Y83764D01*
X88189Y83762D01*
X88205Y83753D01*
X88258Y83754D01*
X88312Y83748D01*
X88328Y83756D01*
X88345Y83757D01*
X88390Y83786D01*
X88438Y83810D01*
X88448Y83825D01*
X88463Y83835D01*
X88504Y83904D01*
X92441Y93810D01*
X92447Y93874D01*
X92457Y93937D01*
X92454Y93943D01*
X92455Y93951D01*
X92426Y94008D01*
X92401Y94066D01*
X92394Y94072D01*
X92391Y94077D01*
X92382Y94082D01*
X92340Y94119D01*
X91197Y94828D01*
X90242Y95737D01*
X89492Y96822D01*
X88979Y98037D01*
X88725Y99331D01*
X88739Y100649D01*
X89023Y101937D01*
X89563Y103140D01*
X90337Y104207D01*
X91312Y105095D01*
X92448Y105765D01*
X93696Y106189D01*
X95004Y106349D01*
X96357Y106230D01*
X97652Y105823D01*
X98829Y105149D01*
X99835Y104238D01*
X100623Y103133D01*
X101156Y101885D01*
X101409Y100552D01*
X101371Y99195D01*
X101044Y97878D01*
X100442Y96662D01*
X99593Y95603D01*
X98538Y94750D01*
X97300Y94130D01*
X97249Y94083D01*
X97197Y94036D01*
X97197Y94035D01*
X97196Y94035D01*
X97178Y93967D01*
X97160Y93900D01*
X97160Y93899D01*
X97160Y93897D01*
X97174Y93820D01*
X100730Y83660D01*
X100750Y83633D01*
X100760Y83601D01*
X100790Y83577D01*
X100812Y83546D01*
X100843Y83533D01*
X100869Y83511D01*
X100907Y83507D01*
X100942Y83492D01*
X100975Y83498D01*
X101009Y83494D01*
X101075Y83516D01*
X101081Y83517D01*
X101082Y83518D01*
X101086Y83519D01*
X103873Y84973D01*
X108954Y81503D01*
X109005Y81486D01*
X109052Y81463D01*
X109071Y81465D01*
X109088Y81459D01*
X109140Y81472D01*
G37*
D10*
X142476Y32111D02*
X147358Y32111D01*
X147358Y43095D01*
X142476Y43095D01*
X143696Y38214D02*
X147358Y38214D01*
X135078Y32111D02*
X134982Y32113D01*
X134887Y32119D01*
X134791Y32128D01*
X134696Y32141D01*
X134602Y32158D01*
X134508Y32178D01*
X134415Y32203D01*
X134324Y32230D01*
X134233Y32262D01*
X134144Y32297D01*
X134056Y32335D01*
X133970Y32377D01*
X133885Y32422D01*
X133803Y32471D01*
X133722Y32522D01*
X133643Y32577D01*
X133567Y32635D01*
X133493Y32696D01*
X133421Y32760D01*
X133352Y32826D01*
X133286Y32895D01*
X133222Y32967D01*
X133161Y33041D01*
X133103Y33117D01*
X133048Y33196D01*
X132997Y33277D01*
X132948Y33359D01*
X132903Y33444D01*
X132861Y33530D01*
X132823Y33618D01*
X132788Y33707D01*
X132756Y33798D01*
X132729Y33889D01*
X132704Y33982D01*
X132684Y34076D01*
X132667Y34170D01*
X132654Y34265D01*
X132645Y34360D01*
X132639Y34456D01*
X132637Y34552D01*
X135078Y32111D02*
X135218Y32113D01*
X135359Y32119D01*
X135499Y32128D01*
X135639Y32142D01*
X135778Y32159D01*
X135917Y32180D01*
X136055Y32204D01*
X136192Y32233D01*
X136329Y32265D01*
X136465Y32301D01*
X136600Y32341D01*
X136733Y32384D01*
X136865Y32431D01*
X136996Y32481D01*
X137126Y32535D01*
X137254Y32593D01*
X137381Y32654D01*
X137505Y32718D01*
X137628Y32786D01*
X137749Y32857D01*
X137869Y32931D01*
X137986Y33009D01*
X138100Y33090D01*
X138213Y33173D01*
X138323Y33260D01*
X138431Y33350D01*
X138537Y33443D01*
X138639Y33538D01*
X138740Y33637D01*
X138435Y40654D02*
X138433Y40750D01*
X138427Y40846D01*
X138418Y40941D01*
X138405Y41036D01*
X138388Y41130D01*
X138368Y41224D01*
X138343Y41317D01*
X138316Y41408D01*
X138284Y41499D01*
X138249Y41588D01*
X138211Y41676D01*
X138169Y41762D01*
X138124Y41847D01*
X138075Y41929D01*
X138024Y42010D01*
X137969Y42089D01*
X137911Y42165D01*
X137850Y42239D01*
X137786Y42311D01*
X137720Y42380D01*
X137651Y42446D01*
X137579Y42510D01*
X137505Y42571D01*
X137429Y42629D01*
X137350Y42684D01*
X137269Y42735D01*
X137187Y42784D01*
X137102Y42829D01*
X137016Y42871D01*
X136928Y42909D01*
X136839Y42944D01*
X136748Y42976D01*
X136657Y43003D01*
X136564Y43028D01*
X136470Y43048D01*
X136376Y43065D01*
X136281Y43078D01*
X136186Y43087D01*
X136090Y43093D01*
X135994Y43095D01*
X135994Y43096D02*
X135860Y43094D01*
X135726Y43088D01*
X135593Y43078D01*
X135460Y43065D01*
X135327Y43047D01*
X135195Y43026D01*
X135063Y43000D01*
X134933Y42971D01*
X134803Y42938D01*
X134674Y42902D01*
X134547Y42861D01*
X134420Y42817D01*
X134295Y42769D01*
X134172Y42718D01*
X134050Y42662D01*
X133929Y42604D01*
X133811Y42542D01*
X133694Y42476D01*
X133579Y42407D01*
X133467Y42335D01*
X133356Y42259D01*
X133248Y42181D01*
X137214Y38518D02*
X137298Y38570D01*
X137380Y38625D01*
X137460Y38684D01*
X137537Y38746D01*
X137612Y38810D01*
X137684Y38878D01*
X137754Y38948D01*
X137821Y39022D01*
X137884Y39097D01*
X137945Y39176D01*
X138002Y39256D01*
X138057Y39339D01*
X138107Y39424D01*
X138155Y39511D01*
X138199Y39600D01*
X138239Y39690D01*
X138276Y39782D01*
X138309Y39875D01*
X138338Y39970D01*
X138363Y40066D01*
X138385Y40162D01*
X138402Y40260D01*
X138416Y40358D01*
X138426Y40456D01*
X138432Y40555D01*
X138434Y40654D01*
X133857Y36688D02*
X133773Y36636D01*
X133691Y36581D01*
X133611Y36522D01*
X133534Y36460D01*
X133459Y36396D01*
X133387Y36328D01*
X133317Y36258D01*
X133250Y36184D01*
X133187Y36109D01*
X133126Y36030D01*
X133069Y35950D01*
X133014Y35867D01*
X132964Y35782D01*
X132916Y35695D01*
X132872Y35606D01*
X132832Y35516D01*
X132795Y35424D01*
X132762Y35331D01*
X132733Y35236D01*
X132708Y35140D01*
X132686Y35044D01*
X132669Y34946D01*
X132655Y34848D01*
X132645Y34750D01*
X132639Y34651D01*
X132637Y34552D01*
X133858Y36688D02*
X137214Y38519D01*
X127775Y43095D02*
X127775Y32111D01*
X127775Y43095D02*
X124724Y43095D01*
X124615Y43093D01*
X124506Y43087D01*
X124398Y43078D01*
X124290Y43064D01*
X124182Y43047D01*
X124075Y43025D01*
X123969Y43000D01*
X123864Y42971D01*
X123760Y42939D01*
X123658Y42903D01*
X123556Y42863D01*
X123457Y42819D01*
X123358Y42772D01*
X123262Y42722D01*
X123167Y42668D01*
X123075Y42611D01*
X122984Y42550D01*
X122896Y42486D01*
X122810Y42420D01*
X122726Y42350D01*
X122645Y42277D01*
X122567Y42201D01*
X122491Y42123D01*
X122418Y42042D01*
X122348Y41958D01*
X122282Y41872D01*
X122218Y41784D01*
X122157Y41693D01*
X122100Y41601D01*
X122046Y41506D01*
X121996Y41410D01*
X121949Y41311D01*
X121905Y41212D01*
X121865Y41110D01*
X121829Y41008D01*
X121797Y40904D01*
X121768Y40799D01*
X121743Y40693D01*
X121721Y40586D01*
X121704Y40478D01*
X121690Y40370D01*
X121681Y40262D01*
X121675Y40153D01*
X121673Y40044D01*
X121675Y39935D01*
X121681Y39826D01*
X121690Y39718D01*
X121704Y39610D01*
X121721Y39502D01*
X121743Y39395D01*
X121768Y39289D01*
X121797Y39184D01*
X121829Y39080D01*
X121865Y38978D01*
X121905Y38876D01*
X121949Y38777D01*
X121996Y38678D01*
X122046Y38582D01*
X122100Y38487D01*
X122157Y38395D01*
X122218Y38304D01*
X122282Y38216D01*
X122348Y38130D01*
X122418Y38046D01*
X122491Y37965D01*
X122567Y37887D01*
X122645Y37811D01*
X122726Y37738D01*
X122810Y37668D01*
X122896Y37602D01*
X122984Y37538D01*
X123075Y37477D01*
X123167Y37420D01*
X123262Y37366D01*
X123358Y37316D01*
X123457Y37269D01*
X123556Y37225D01*
X123658Y37185D01*
X123760Y37149D01*
X123864Y37117D01*
X123969Y37088D01*
X124075Y37063D01*
X124182Y37041D01*
X124290Y37024D01*
X124398Y37010D01*
X124506Y37001D01*
X124615Y36995D01*
X124724Y36993D01*
X127775Y36993D01*
X117500Y35162D02*
X117498Y35271D01*
X117492Y35380D01*
X117483Y35488D01*
X117469Y35596D01*
X117452Y35704D01*
X117430Y35811D01*
X117405Y35917D01*
X117376Y36022D01*
X117344Y36126D01*
X117308Y36228D01*
X117268Y36330D01*
X117224Y36429D01*
X117177Y36528D01*
X117127Y36624D01*
X117073Y36719D01*
X117016Y36811D01*
X116955Y36902D01*
X116891Y36990D01*
X116825Y37076D01*
X116755Y37160D01*
X116682Y37241D01*
X116606Y37319D01*
X116528Y37395D01*
X116447Y37468D01*
X116363Y37538D01*
X116277Y37604D01*
X116189Y37668D01*
X116098Y37729D01*
X116006Y37786D01*
X115911Y37840D01*
X115815Y37890D01*
X115716Y37937D01*
X115617Y37981D01*
X115515Y38021D01*
X115413Y38057D01*
X115309Y38089D01*
X115204Y38118D01*
X115098Y38143D01*
X114991Y38165D01*
X114883Y38182D01*
X114775Y38196D01*
X114667Y38205D01*
X114558Y38211D01*
X114449Y38213D01*
X114340Y38211D01*
X114231Y38205D01*
X114123Y38196D01*
X114015Y38182D01*
X113907Y38165D01*
X113800Y38143D01*
X113694Y38118D01*
X113589Y38089D01*
X113485Y38057D01*
X113383Y38021D01*
X113281Y37981D01*
X113182Y37937D01*
X113083Y37890D01*
X112987Y37840D01*
X112892Y37786D01*
X112800Y37729D01*
X112709Y37668D01*
X112621Y37604D01*
X112535Y37538D01*
X112451Y37468D01*
X112370Y37395D01*
X112292Y37319D01*
X112216Y37241D01*
X112143Y37160D01*
X112073Y37076D01*
X112007Y36990D01*
X111943Y36902D01*
X111882Y36811D01*
X111825Y36719D01*
X111771Y36624D01*
X111721Y36528D01*
X111674Y36429D01*
X111630Y36330D01*
X111590Y36228D01*
X111554Y36126D01*
X111522Y36022D01*
X111493Y35917D01*
X111468Y35811D01*
X111446Y35704D01*
X111429Y35596D01*
X111415Y35488D01*
X111406Y35380D01*
X111400Y35271D01*
X111398Y35162D01*
X111400Y35053D01*
X111406Y34944D01*
X111415Y34836D01*
X111429Y34728D01*
X111446Y34620D01*
X111468Y34513D01*
X111493Y34407D01*
X111522Y34302D01*
X111554Y34198D01*
X111590Y34096D01*
X111630Y33994D01*
X111674Y33895D01*
X111721Y33796D01*
X111771Y33700D01*
X111825Y33605D01*
X111882Y33513D01*
X111943Y33422D01*
X112007Y33334D01*
X112073Y33248D01*
X112143Y33164D01*
X112216Y33083D01*
X112292Y33005D01*
X112370Y32929D01*
X112451Y32856D01*
X112535Y32786D01*
X112621Y32720D01*
X112709Y32656D01*
X112800Y32595D01*
X112892Y32538D01*
X112987Y32484D01*
X113083Y32434D01*
X113182Y32387D01*
X113281Y32343D01*
X113383Y32303D01*
X113485Y32267D01*
X113589Y32235D01*
X113694Y32206D01*
X113800Y32181D01*
X113907Y32159D01*
X114015Y32142D01*
X114123Y32128D01*
X114231Y32119D01*
X114340Y32113D01*
X114449Y32111D01*
X114558Y32113D01*
X114667Y32119D01*
X114775Y32128D01*
X114883Y32142D01*
X114991Y32159D01*
X115098Y32181D01*
X115204Y32206D01*
X115309Y32235D01*
X115413Y32267D01*
X115515Y32303D01*
X115617Y32343D01*
X115716Y32387D01*
X115815Y32434D01*
X115911Y32484D01*
X116006Y32538D01*
X116098Y32595D01*
X116189Y32656D01*
X116277Y32720D01*
X116363Y32786D01*
X116447Y32856D01*
X116528Y32929D01*
X116606Y33005D01*
X116682Y33083D01*
X116755Y33164D01*
X116825Y33248D01*
X116891Y33334D01*
X116955Y33422D01*
X117016Y33513D01*
X117073Y33605D01*
X117127Y33700D01*
X117177Y33796D01*
X117224Y33895D01*
X117268Y33994D01*
X117308Y34096D01*
X117344Y34198D01*
X117376Y34302D01*
X117405Y34407D01*
X117430Y34513D01*
X117452Y34620D01*
X117469Y34728D01*
X117483Y34836D01*
X117492Y34944D01*
X117498Y35053D01*
X117500Y35162D01*
X116890Y40654D02*
X116888Y40751D01*
X116882Y40848D01*
X116873Y40945D01*
X116859Y41041D01*
X116842Y41136D01*
X116821Y41231D01*
X116796Y41325D01*
X116768Y41418D01*
X116735Y41509D01*
X116700Y41599D01*
X116660Y41688D01*
X116617Y41775D01*
X116571Y41860D01*
X116521Y41944D01*
X116468Y42025D01*
X116412Y42104D01*
X116353Y42181D01*
X116291Y42256D01*
X116226Y42328D01*
X116158Y42397D01*
X116087Y42464D01*
X116014Y42527D01*
X115938Y42588D01*
X115860Y42646D01*
X115780Y42700D01*
X115697Y42752D01*
X115613Y42800D01*
X115527Y42844D01*
X115439Y42885D01*
X115349Y42923D01*
X115258Y42957D01*
X115166Y42987D01*
X115073Y43014D01*
X114979Y43037D01*
X114883Y43056D01*
X114788Y43071D01*
X114691Y43083D01*
X114595Y43091D01*
X114498Y43095D01*
X114400Y43095D01*
X114303Y43091D01*
X114207Y43083D01*
X114110Y43071D01*
X114015Y43056D01*
X113919Y43037D01*
X113825Y43014D01*
X113732Y42987D01*
X113640Y42957D01*
X113549Y42923D01*
X113459Y42885D01*
X113371Y42844D01*
X113285Y42800D01*
X113201Y42752D01*
X113118Y42700D01*
X113038Y42646D01*
X112960Y42588D01*
X112884Y42527D01*
X112811Y42464D01*
X112740Y42397D01*
X112672Y42328D01*
X112607Y42256D01*
X112545Y42181D01*
X112486Y42104D01*
X112430Y42025D01*
X112377Y41944D01*
X112327Y41860D01*
X112281Y41775D01*
X112238Y41688D01*
X112198Y41599D01*
X112163Y41509D01*
X112130Y41418D01*
X112102Y41325D01*
X112077Y41231D01*
X112056Y41136D01*
X112039Y41041D01*
X112025Y40945D01*
X112016Y40848D01*
X112010Y40751D01*
X112008Y40654D01*
X112010Y40557D01*
X112016Y40460D01*
X112025Y40363D01*
X112039Y40267D01*
X112056Y40172D01*
X112077Y40077D01*
X112102Y39983D01*
X112130Y39890D01*
X112163Y39799D01*
X112198Y39709D01*
X112238Y39620D01*
X112281Y39533D01*
X112327Y39448D01*
X112377Y39364D01*
X112430Y39283D01*
X112486Y39204D01*
X112545Y39127D01*
X112607Y39052D01*
X112672Y38980D01*
X112740Y38911D01*
X112811Y38844D01*
X112884Y38781D01*
X112960Y38720D01*
X113038Y38662D01*
X113118Y38608D01*
X113201Y38556D01*
X113285Y38508D01*
X113371Y38464D01*
X113459Y38423D01*
X113549Y38385D01*
X113640Y38351D01*
X113732Y38321D01*
X113825Y38294D01*
X113919Y38271D01*
X114015Y38252D01*
X114110Y38237D01*
X114207Y38225D01*
X114303Y38217D01*
X114400Y38213D01*
X114498Y38213D01*
X114595Y38217D01*
X114691Y38225D01*
X114788Y38237D01*
X114883Y38252D01*
X114979Y38271D01*
X115073Y38294D01*
X115166Y38321D01*
X115258Y38351D01*
X115349Y38385D01*
X115439Y38423D01*
X115527Y38464D01*
X115613Y38508D01*
X115697Y38556D01*
X115780Y38608D01*
X115860Y38662D01*
X115938Y38720D01*
X116014Y38781D01*
X116087Y38844D01*
X116158Y38911D01*
X116226Y38980D01*
X116291Y39052D01*
X116353Y39127D01*
X116412Y39204D01*
X116468Y39283D01*
X116521Y39364D01*
X116571Y39448D01*
X116617Y39533D01*
X116660Y39620D01*
X116700Y39709D01*
X116735Y39799D01*
X116768Y39890D01*
X116796Y39983D01*
X116821Y40077D01*
X116842Y40172D01*
X116859Y40267D01*
X116873Y40363D01*
X116882Y40460D01*
X116888Y40557D01*
X116890Y40654D01*
X103343Y43095D02*
X103240Y43093D01*
X103138Y43087D01*
X103036Y43078D01*
X102934Y43064D01*
X102832Y43047D01*
X102732Y43026D01*
X102632Y43001D01*
X102534Y42973D01*
X102436Y42941D01*
X102340Y42905D01*
X102245Y42866D01*
X102152Y42823D01*
X102060Y42777D01*
X101970Y42727D01*
X101882Y42674D01*
X101796Y42618D01*
X101712Y42558D01*
X101631Y42496D01*
X101552Y42430D01*
X101475Y42362D01*
X101401Y42291D01*
X101330Y42217D01*
X101262Y42140D01*
X101196Y42061D01*
X101134Y41980D01*
X101074Y41896D01*
X101018Y41810D01*
X100965Y41722D01*
X100915Y41632D01*
X100869Y41540D01*
X100826Y41447D01*
X100787Y41352D01*
X100751Y41256D01*
X100719Y41158D01*
X100691Y41060D01*
X100666Y40960D01*
X100645Y40860D01*
X100628Y40758D01*
X100614Y40656D01*
X100605Y40554D01*
X100599Y40452D01*
X100597Y40349D01*
X103343Y43096D02*
X103460Y43094D01*
X103576Y43088D01*
X103693Y43079D01*
X103809Y43065D01*
X103924Y43048D01*
X104039Y43027D01*
X104153Y43002D01*
X104266Y42973D01*
X104378Y42941D01*
X104489Y42905D01*
X104599Y42865D01*
X104708Y42821D01*
X104814Y42774D01*
X104920Y42724D01*
X105023Y42670D01*
X105125Y42613D01*
X105225Y42552D01*
X105323Y42488D01*
X105418Y42421D01*
X105511Y42351D01*
X105602Y42278D01*
X105691Y42201D01*
X105777Y42122D01*
X105860Y42040D01*
X105940Y41956D01*
X106018Y41869D01*
X106092Y41779D01*
X106164Y41687D01*
X106233Y41592D01*
X106298Y41495D01*
X106360Y41397D01*
X106419Y41296D01*
X106474Y41193D01*
X106527Y41088D01*
X106575Y40982D01*
X106620Y40875D01*
X106662Y40765D01*
X106699Y40655D01*
X101513Y38214D02*
X101439Y38286D01*
X101368Y38362D01*
X101299Y38440D01*
X101234Y38520D01*
X101171Y38603D01*
X101111Y38687D01*
X101054Y38774D01*
X101000Y38863D01*
X100949Y38954D01*
X100902Y39046D01*
X100857Y39140D01*
X100816Y39235D01*
X100779Y39332D01*
X100745Y39430D01*
X100714Y39529D01*
X100687Y39630D01*
X100664Y39731D01*
X100644Y39833D01*
X100627Y39935D01*
X100614Y40038D01*
X100605Y40142D01*
X100600Y40245D01*
X100598Y40349D01*
X101513Y38214D02*
X106700Y32111D01*
X100597Y32111D01*
X95900Y38214D02*
X92238Y38214D01*
X92140Y38212D01*
X92042Y38206D01*
X91944Y38196D01*
X91846Y38182D01*
X91750Y38165D01*
X91654Y38143D01*
X91559Y38118D01*
X91465Y38088D01*
X91372Y38055D01*
X91281Y38019D01*
X91192Y37978D01*
X91104Y37934D01*
X91018Y37887D01*
X90933Y37836D01*
X90851Y37782D01*
X90772Y37724D01*
X90694Y37664D01*
X90619Y37600D01*
X90547Y37533D01*
X90478Y37464D01*
X90411Y37392D01*
X90347Y37317D01*
X90287Y37239D01*
X90229Y37160D01*
X90175Y37078D01*
X90124Y36994D01*
X90077Y36907D01*
X90033Y36819D01*
X89992Y36730D01*
X89956Y36639D01*
X89923Y36546D01*
X89893Y36452D01*
X89868Y36357D01*
X89846Y36261D01*
X89829Y36165D01*
X89815Y36067D01*
X89805Y35969D01*
X89799Y35871D01*
X89797Y35773D01*
X89797Y35162D01*
X89798Y35162D02*
X89800Y35053D01*
X89806Y34944D01*
X89815Y34836D01*
X89829Y34728D01*
X89846Y34620D01*
X89868Y34513D01*
X89893Y34407D01*
X89922Y34302D01*
X89954Y34198D01*
X89990Y34096D01*
X90030Y33994D01*
X90074Y33895D01*
X90121Y33796D01*
X90171Y33700D01*
X90225Y33605D01*
X90282Y33513D01*
X90343Y33422D01*
X90407Y33334D01*
X90473Y33248D01*
X90543Y33164D01*
X90616Y33083D01*
X90692Y33005D01*
X90770Y32929D01*
X90851Y32856D01*
X90935Y32786D01*
X91021Y32720D01*
X91109Y32656D01*
X91200Y32595D01*
X91292Y32538D01*
X91387Y32484D01*
X91483Y32434D01*
X91582Y32387D01*
X91681Y32343D01*
X91783Y32303D01*
X91885Y32267D01*
X91989Y32235D01*
X92094Y32206D01*
X92200Y32181D01*
X92307Y32159D01*
X92415Y32142D01*
X92523Y32128D01*
X92631Y32119D01*
X92740Y32113D01*
X92849Y32111D01*
X92958Y32113D01*
X93067Y32119D01*
X93175Y32128D01*
X93283Y32142D01*
X93391Y32159D01*
X93498Y32181D01*
X93604Y32206D01*
X93709Y32235D01*
X93813Y32267D01*
X93915Y32303D01*
X94017Y32343D01*
X94116Y32387D01*
X94215Y32434D01*
X94311Y32484D01*
X94406Y32538D01*
X94498Y32595D01*
X94589Y32656D01*
X94677Y32720D01*
X94763Y32786D01*
X94847Y32856D01*
X94928Y32929D01*
X95006Y33005D01*
X95082Y33083D01*
X95155Y33164D01*
X95225Y33248D01*
X95291Y33334D01*
X95355Y33422D01*
X95416Y33513D01*
X95473Y33605D01*
X95527Y33700D01*
X95577Y33796D01*
X95624Y33895D01*
X95668Y33994D01*
X95708Y34096D01*
X95744Y34198D01*
X95776Y34302D01*
X95805Y34407D01*
X95830Y34513D01*
X95852Y34620D01*
X95869Y34728D01*
X95883Y34836D01*
X95892Y34944D01*
X95898Y35053D01*
X95900Y35162D01*
X95900Y38214D01*
X95898Y38351D01*
X95892Y38488D01*
X95883Y38624D01*
X95869Y38761D01*
X95852Y38896D01*
X95831Y39032D01*
X95806Y39166D01*
X95778Y39300D01*
X95745Y39433D01*
X95709Y39566D01*
X95669Y39697D01*
X95626Y39826D01*
X95579Y39955D01*
X95528Y40082D01*
X95474Y40208D01*
X95417Y40332D01*
X95355Y40455D01*
X95291Y40576D01*
X95223Y40694D01*
X95152Y40811D01*
X95077Y40926D01*
X95000Y41039D01*
X94919Y41150D01*
X94835Y41258D01*
X94748Y41364D01*
X94658Y41467D01*
X94566Y41568D01*
X94470Y41666D01*
X94372Y41762D01*
X94271Y41854D01*
X94168Y41944D01*
X94062Y42031D01*
X93954Y42115D01*
X93843Y42196D01*
X93730Y42273D01*
X93615Y42348D01*
X93498Y42419D01*
X93380Y42487D01*
X93259Y42551D01*
X93136Y42613D01*
X93012Y42670D01*
X92886Y42724D01*
X92759Y42775D01*
X92630Y42822D01*
X92501Y42865D01*
X92370Y42905D01*
X92237Y42941D01*
X92104Y42974D01*
X91970Y43002D01*
X91836Y43027D01*
X91700Y43048D01*
X91565Y43065D01*
X91428Y43079D01*
X91292Y43088D01*
X91155Y43094D01*
X91018Y43096D01*
X85100Y38214D02*
X81438Y38214D01*
X81340Y38212D01*
X81242Y38206D01*
X81144Y38196D01*
X81046Y38182D01*
X80950Y38165D01*
X80854Y38143D01*
X80759Y38118D01*
X80665Y38088D01*
X80572Y38055D01*
X80481Y38019D01*
X80392Y37978D01*
X80304Y37934D01*
X80218Y37887D01*
X80133Y37836D01*
X80051Y37782D01*
X79972Y37724D01*
X79894Y37664D01*
X79819Y37600D01*
X79747Y37533D01*
X79678Y37464D01*
X79611Y37392D01*
X79547Y37317D01*
X79487Y37239D01*
X79429Y37160D01*
X79375Y37078D01*
X79324Y36994D01*
X79277Y36907D01*
X79233Y36819D01*
X79192Y36730D01*
X79156Y36639D01*
X79123Y36546D01*
X79093Y36452D01*
X79068Y36357D01*
X79046Y36261D01*
X79029Y36165D01*
X79015Y36067D01*
X79005Y35969D01*
X78999Y35871D01*
X78997Y35773D01*
X78998Y35773D02*
X78998Y35162D01*
X79000Y35053D01*
X79006Y34944D01*
X79015Y34836D01*
X79029Y34728D01*
X79046Y34620D01*
X79068Y34513D01*
X79093Y34407D01*
X79122Y34302D01*
X79154Y34198D01*
X79190Y34096D01*
X79230Y33994D01*
X79274Y33895D01*
X79321Y33796D01*
X79371Y33700D01*
X79425Y33605D01*
X79482Y33513D01*
X79543Y33422D01*
X79607Y33334D01*
X79673Y33248D01*
X79743Y33164D01*
X79816Y33083D01*
X79892Y33005D01*
X79970Y32929D01*
X80051Y32856D01*
X80135Y32786D01*
X80221Y32720D01*
X80309Y32656D01*
X80400Y32595D01*
X80492Y32538D01*
X80587Y32484D01*
X80683Y32434D01*
X80782Y32387D01*
X80881Y32343D01*
X80983Y32303D01*
X81085Y32267D01*
X81189Y32235D01*
X81294Y32206D01*
X81400Y32181D01*
X81507Y32159D01*
X81615Y32142D01*
X81723Y32128D01*
X81831Y32119D01*
X81940Y32113D01*
X82049Y32111D01*
X82158Y32113D01*
X82267Y32119D01*
X82375Y32128D01*
X82483Y32142D01*
X82591Y32159D01*
X82698Y32181D01*
X82804Y32206D01*
X82909Y32235D01*
X83013Y32267D01*
X83115Y32303D01*
X83217Y32343D01*
X83316Y32387D01*
X83415Y32434D01*
X83511Y32484D01*
X83606Y32538D01*
X83698Y32595D01*
X83789Y32656D01*
X83877Y32720D01*
X83963Y32786D01*
X84047Y32856D01*
X84128Y32929D01*
X84206Y33005D01*
X84282Y33083D01*
X84355Y33164D01*
X84425Y33248D01*
X84491Y33334D01*
X84555Y33422D01*
X84616Y33513D01*
X84673Y33605D01*
X84727Y33700D01*
X84777Y33796D01*
X84824Y33895D01*
X84868Y33994D01*
X84908Y34096D01*
X84944Y34198D01*
X84976Y34302D01*
X85005Y34407D01*
X85030Y34513D01*
X85052Y34620D01*
X85069Y34728D01*
X85083Y34836D01*
X85092Y34944D01*
X85098Y35053D01*
X85100Y35162D01*
X85100Y38214D01*
X85098Y38351D01*
X85092Y38488D01*
X85083Y38624D01*
X85069Y38761D01*
X85052Y38896D01*
X85031Y39032D01*
X85006Y39166D01*
X84978Y39300D01*
X84945Y39433D01*
X84909Y39566D01*
X84869Y39697D01*
X84826Y39826D01*
X84779Y39955D01*
X84728Y40082D01*
X84674Y40208D01*
X84617Y40332D01*
X84555Y40455D01*
X84491Y40576D01*
X84423Y40694D01*
X84352Y40811D01*
X84277Y40926D01*
X84200Y41039D01*
X84119Y41150D01*
X84035Y41258D01*
X83948Y41364D01*
X83858Y41467D01*
X83766Y41568D01*
X83670Y41666D01*
X83572Y41762D01*
X83471Y41854D01*
X83368Y41944D01*
X83262Y42031D01*
X83154Y42115D01*
X83043Y42196D01*
X82930Y42273D01*
X82815Y42348D01*
X82698Y42419D01*
X82580Y42487D01*
X82459Y42551D01*
X82336Y42613D01*
X82212Y42670D01*
X82086Y42724D01*
X81959Y42775D01*
X81830Y42822D01*
X81701Y42865D01*
X81570Y42905D01*
X81437Y42941D01*
X81304Y42974D01*
X81170Y43002D01*
X81036Y43027D01*
X80900Y43048D01*
X80765Y43065D01*
X80628Y43079D01*
X80492Y43088D01*
X80355Y43094D01*
X80218Y43096D01*
X73830Y43095D02*
X73830Y32111D01*
X70169Y36993D02*
X73830Y43095D01*
X70169Y36993D02*
X66507Y43095D01*
X66507Y32111D01*
X61340Y35162D02*
X61340Y40044D01*
X61338Y40153D01*
X61332Y40262D01*
X61323Y40370D01*
X61309Y40478D01*
X61292Y40586D01*
X61270Y40693D01*
X61245Y40799D01*
X61216Y40904D01*
X61184Y41008D01*
X61148Y41110D01*
X61108Y41212D01*
X61064Y41311D01*
X61017Y41410D01*
X60967Y41506D01*
X60913Y41601D01*
X60856Y41693D01*
X60795Y41784D01*
X60731Y41872D01*
X60665Y41958D01*
X60595Y42042D01*
X60522Y42123D01*
X60446Y42201D01*
X60368Y42277D01*
X60287Y42350D01*
X60203Y42420D01*
X60117Y42486D01*
X60029Y42550D01*
X59938Y42611D01*
X59846Y42668D01*
X59751Y42722D01*
X59655Y42772D01*
X59556Y42819D01*
X59457Y42863D01*
X59355Y42903D01*
X59253Y42939D01*
X59149Y42971D01*
X59044Y43000D01*
X58938Y43025D01*
X58831Y43047D01*
X58723Y43064D01*
X58615Y43078D01*
X58507Y43087D01*
X58398Y43093D01*
X58289Y43095D01*
X58180Y43093D01*
X58071Y43087D01*
X57963Y43078D01*
X57855Y43064D01*
X57747Y43047D01*
X57640Y43025D01*
X57534Y43000D01*
X57429Y42971D01*
X57325Y42939D01*
X57223Y42903D01*
X57121Y42863D01*
X57022Y42819D01*
X56923Y42772D01*
X56827Y42722D01*
X56732Y42668D01*
X56640Y42611D01*
X56549Y42550D01*
X56461Y42486D01*
X56375Y42420D01*
X56291Y42350D01*
X56210Y42277D01*
X56132Y42201D01*
X56056Y42123D01*
X55983Y42042D01*
X55913Y41958D01*
X55847Y41872D01*
X55783Y41784D01*
X55722Y41693D01*
X55665Y41601D01*
X55611Y41506D01*
X55561Y41410D01*
X55514Y41311D01*
X55470Y41212D01*
X55430Y41110D01*
X55394Y41008D01*
X55362Y40904D01*
X55333Y40799D01*
X55308Y40693D01*
X55286Y40586D01*
X55269Y40478D01*
X55255Y40370D01*
X55246Y40262D01*
X55240Y40153D01*
X55238Y40044D01*
X55238Y35162D01*
X55240Y35053D01*
X55246Y34944D01*
X55255Y34836D01*
X55269Y34728D01*
X55286Y34620D01*
X55308Y34513D01*
X55333Y34407D01*
X55362Y34302D01*
X55394Y34198D01*
X55430Y34096D01*
X55470Y33994D01*
X55514Y33895D01*
X55561Y33796D01*
X55611Y33700D01*
X55665Y33605D01*
X55722Y33513D01*
X55783Y33422D01*
X55847Y33334D01*
X55913Y33248D01*
X55983Y33164D01*
X56056Y33083D01*
X56132Y33005D01*
X56210Y32929D01*
X56291Y32856D01*
X56375Y32786D01*
X56461Y32720D01*
X56549Y32656D01*
X56640Y32595D01*
X56732Y32538D01*
X56827Y32484D01*
X56923Y32434D01*
X57022Y32387D01*
X57121Y32343D01*
X57223Y32303D01*
X57325Y32267D01*
X57429Y32235D01*
X57534Y32206D01*
X57640Y32181D01*
X57747Y32159D01*
X57855Y32142D01*
X57963Y32128D01*
X58071Y32119D01*
X58180Y32113D01*
X58289Y32111D01*
X58398Y32113D01*
X58507Y32119D01*
X58615Y32128D01*
X58723Y32142D01*
X58831Y32159D01*
X58938Y32181D01*
X59044Y32206D01*
X59149Y32235D01*
X59253Y32267D01*
X59355Y32303D01*
X59457Y32343D01*
X59556Y32387D01*
X59655Y32434D01*
X59751Y32484D01*
X59846Y32538D01*
X59938Y32595D01*
X60029Y32656D01*
X60117Y32720D01*
X60203Y32786D01*
X60287Y32856D01*
X60368Y32929D01*
X60446Y33005D01*
X60522Y33083D01*
X60595Y33164D01*
X60665Y33248D01*
X60731Y33334D01*
X60795Y33422D01*
X60856Y33513D01*
X60913Y33605D01*
X60967Y33700D01*
X61017Y33796D01*
X61064Y33895D01*
X61108Y33994D01*
X61148Y34096D01*
X61184Y34198D01*
X61216Y34302D01*
X61245Y34407D01*
X61270Y34513D01*
X61292Y34620D01*
X61309Y34728D01*
X61323Y34836D01*
X61332Y34944D01*
X61338Y35053D01*
X61340Y35162D01*
X50180Y32111D02*
X50180Y43095D01*
X47129Y43095D01*
X47020Y43093D01*
X46911Y43087D01*
X46803Y43078D01*
X46695Y43064D01*
X46587Y43047D01*
X46480Y43025D01*
X46374Y43000D01*
X46269Y42971D01*
X46165Y42939D01*
X46063Y42903D01*
X45961Y42863D01*
X45862Y42819D01*
X45763Y42772D01*
X45667Y42722D01*
X45572Y42668D01*
X45480Y42611D01*
X45389Y42550D01*
X45301Y42486D01*
X45215Y42420D01*
X45131Y42350D01*
X45050Y42277D01*
X44972Y42201D01*
X44896Y42123D01*
X44823Y42042D01*
X44753Y41958D01*
X44687Y41872D01*
X44623Y41784D01*
X44562Y41693D01*
X44505Y41601D01*
X44451Y41506D01*
X44401Y41410D01*
X44354Y41311D01*
X44310Y41212D01*
X44270Y41110D01*
X44234Y41008D01*
X44202Y40904D01*
X44173Y40799D01*
X44148Y40693D01*
X44126Y40586D01*
X44109Y40478D01*
X44095Y40370D01*
X44086Y40262D01*
X44080Y40153D01*
X44078Y40044D01*
X44078Y35162D01*
X44080Y35053D01*
X44086Y34944D01*
X44095Y34836D01*
X44109Y34728D01*
X44126Y34620D01*
X44148Y34513D01*
X44173Y34407D01*
X44202Y34302D01*
X44234Y34198D01*
X44270Y34096D01*
X44310Y33994D01*
X44354Y33895D01*
X44401Y33796D01*
X44451Y33700D01*
X44505Y33605D01*
X44562Y33513D01*
X44623Y33422D01*
X44687Y33334D01*
X44753Y33248D01*
X44823Y33164D01*
X44896Y33083D01*
X44972Y33005D01*
X45050Y32929D01*
X45131Y32856D01*
X45215Y32786D01*
X45301Y32720D01*
X45389Y32656D01*
X45480Y32595D01*
X45572Y32538D01*
X45667Y32484D01*
X45763Y32434D01*
X45862Y32387D01*
X45961Y32343D01*
X46063Y32303D01*
X46165Y32267D01*
X46269Y32235D01*
X46374Y32206D01*
X46480Y32181D01*
X46587Y32159D01*
X46695Y32142D01*
X46803Y32128D01*
X46911Y32119D01*
X47020Y32113D01*
X47129Y32111D01*
X50180Y32111D01*
D11*
X16000Y3500D02*
X16000Y173500D01*
X16000Y3500D02*
X176000Y3500D01*
X176000Y131000D01*
X118000Y131000D01*
X118000Y173500D01*
X16000Y173500D01*
D12*
X127956Y152071D02*
X127959Y152332D01*
X127969Y152593D01*
X127985Y152853D01*
X128007Y153113D01*
X128036Y153372D01*
X128071Y153631D01*
X128112Y153888D01*
X128160Y154145D01*
X128214Y154400D01*
X128275Y154654D01*
X128341Y154906D01*
X128414Y155157D01*
X128493Y155405D01*
X128577Y155652D01*
X128668Y155897D01*
X128765Y156139D01*
X128868Y156379D01*
X128977Y156616D01*
X129091Y156850D01*
X129211Y157082D01*
X129337Y157311D01*
X129468Y157536D01*
X129605Y157758D01*
X129747Y157977D01*
X129895Y158192D01*
X130048Y158403D01*
X130206Y158611D01*
X130369Y158815D01*
X130537Y159014D01*
X130710Y159210D01*
X130887Y159401D01*
X131069Y159588D01*
X131256Y159770D01*
X131447Y159947D01*
X131643Y160120D01*
X131842Y160288D01*
X132046Y160451D01*
X132254Y160609D01*
X132465Y160762D01*
X132680Y160910D01*
X132899Y161052D01*
X133121Y161189D01*
X133346Y161320D01*
X133575Y161446D01*
X133807Y161566D01*
X134041Y161680D01*
X134278Y161789D01*
X134518Y161892D01*
X134760Y161989D01*
X135005Y162080D01*
X135252Y162164D01*
X135500Y162243D01*
X135751Y162316D01*
X136003Y162382D01*
X136257Y162443D01*
X136512Y162497D01*
X136769Y162545D01*
X137026Y162586D01*
X137285Y162621D01*
X137544Y162650D01*
X137804Y162672D01*
X138064Y162688D01*
X138325Y162698D01*
X138586Y162701D01*
X138847Y162698D01*
X139108Y162688D01*
X139368Y162672D01*
X139628Y162650D01*
X139887Y162621D01*
X140146Y162586D01*
X140403Y162545D01*
X140660Y162497D01*
X140915Y162443D01*
X141169Y162382D01*
X141421Y162316D01*
X141672Y162243D01*
X141920Y162164D01*
X142167Y162080D01*
X142412Y161989D01*
X142654Y161892D01*
X142894Y161789D01*
X143131Y161680D01*
X143365Y161566D01*
X143597Y161446D01*
X143826Y161320D01*
X144051Y161189D01*
X144273Y161052D01*
X144492Y160910D01*
X144707Y160762D01*
X144918Y160609D01*
X145126Y160451D01*
X145330Y160288D01*
X145529Y160120D01*
X145725Y159947D01*
X145916Y159770D01*
X146103Y159588D01*
X146285Y159401D01*
X146462Y159210D01*
X146635Y159014D01*
X146803Y158815D01*
X146966Y158611D01*
X147124Y158403D01*
X147277Y158192D01*
X147425Y157977D01*
X147567Y157758D01*
X147704Y157536D01*
X147835Y157311D01*
X147961Y157082D01*
X148081Y156850D01*
X148195Y156616D01*
X148304Y156379D01*
X148407Y156139D01*
X148504Y155897D01*
X148595Y155652D01*
X148679Y155405D01*
X148758Y155157D01*
X148831Y154906D01*
X148897Y154654D01*
X148958Y154400D01*
X149012Y154145D01*
X149060Y153888D01*
X149101Y153631D01*
X149136Y153372D01*
X149165Y153113D01*
X149187Y152853D01*
X149203Y152593D01*
X149213Y152332D01*
X149216Y152071D01*
X149213Y151810D01*
X149203Y151549D01*
X149187Y151289D01*
X149165Y151029D01*
X149136Y150770D01*
X149101Y150511D01*
X149060Y150254D01*
X149012Y149997D01*
X148958Y149742D01*
X148897Y149488D01*
X148831Y149236D01*
X148758Y148985D01*
X148679Y148737D01*
X148595Y148490D01*
X148504Y148245D01*
X148407Y148003D01*
X148304Y147763D01*
X148195Y147526D01*
X148081Y147292D01*
X147961Y147060D01*
X147835Y146831D01*
X147704Y146606D01*
X147567Y146384D01*
X147425Y146165D01*
X147277Y145950D01*
X147124Y145739D01*
X146966Y145531D01*
X146803Y145327D01*
X146635Y145128D01*
X146462Y144932D01*
X146285Y144741D01*
X146103Y144554D01*
X145916Y144372D01*
X145725Y144195D01*
X145529Y144022D01*
X145330Y143854D01*
X145126Y143691D01*
X144918Y143533D01*
X144707Y143380D01*
X144492Y143232D01*
X144273Y143090D01*
X144051Y142953D01*
X143826Y142822D01*
X143597Y142696D01*
X143365Y142576D01*
X143131Y142462D01*
X142894Y142353D01*
X142654Y142250D01*
X142412Y142153D01*
X142167Y142062D01*
X141920Y141978D01*
X141672Y141899D01*
X141421Y141826D01*
X141169Y141760D01*
X140915Y141699D01*
X140660Y141645D01*
X140403Y141597D01*
X140146Y141556D01*
X139887Y141521D01*
X139628Y141492D01*
X139368Y141470D01*
X139108Y141454D01*
X138847Y141444D01*
X138586Y141441D01*
X138325Y141444D01*
X138064Y141454D01*
X137804Y141470D01*
X137544Y141492D01*
X137285Y141521D01*
X137026Y141556D01*
X136769Y141597D01*
X136512Y141645D01*
X136257Y141699D01*
X136003Y141760D01*
X135751Y141826D01*
X135500Y141899D01*
X135252Y141978D01*
X135005Y142062D01*
X134760Y142153D01*
X134518Y142250D01*
X134278Y142353D01*
X134041Y142462D01*
X133807Y142576D01*
X133575Y142696D01*
X133346Y142822D01*
X133121Y142953D01*
X132899Y143090D01*
X132680Y143232D01*
X132465Y143380D01*
X132254Y143533D01*
X132046Y143691D01*
X131842Y143854D01*
X131643Y144022D01*
X131447Y144195D01*
X131256Y144372D01*
X131069Y144554D01*
X130887Y144741D01*
X130710Y144932D01*
X130537Y145128D01*
X130369Y145327D01*
X130206Y145531D01*
X130048Y145739D01*
X129895Y145950D01*
X129747Y146165D01*
X129605Y146384D01*
X129468Y146606D01*
X129337Y146831D01*
X129211Y147060D01*
X129091Y147292D01*
X128977Y147526D01*
X128868Y147763D01*
X128765Y148003D01*
X128668Y148245D01*
X128577Y148490D01*
X128493Y148737D01*
X128414Y148985D01*
X128341Y149236D01*
X128275Y149488D01*
X128214Y149742D01*
X128160Y149997D01*
X128112Y150254D01*
X128071Y150511D01*
X128036Y150770D01*
X128007Y151029D01*
X127985Y151289D01*
X127969Y151549D01*
X127959Y151810D01*
X127956Y152071D01*
X137086Y152500D02*
X137088Y152575D01*
X137094Y152649D01*
X137104Y152723D01*
X137117Y152796D01*
X137135Y152869D01*
X137156Y152940D01*
X137181Y153011D01*
X137210Y153080D01*
X137243Y153147D01*
X137279Y153212D01*
X137318Y153276D01*
X137360Y153337D01*
X137406Y153396D01*
X137455Y153453D01*
X137507Y153506D01*
X137561Y153557D01*
X137618Y153606D01*
X137678Y153650D01*
X137740Y153692D01*
X137804Y153731D01*
X137870Y153766D01*
X137937Y153797D01*
X138007Y153825D01*
X138077Y153849D01*
X138149Y153870D01*
X138222Y153886D01*
X138295Y153899D01*
X138370Y153908D01*
X138444Y153913D01*
X138519Y153914D01*
X138593Y153911D01*
X138668Y153904D01*
X138741Y153893D01*
X138815Y153879D01*
X138887Y153860D01*
X138958Y153838D01*
X139028Y153812D01*
X139097Y153782D01*
X139163Y153749D01*
X139228Y153712D01*
X139291Y153672D01*
X139352Y153628D01*
X139410Y153582D01*
X139466Y153532D01*
X139519Y153480D01*
X139570Y153425D01*
X139617Y153367D01*
X139661Y153307D01*
X139702Y153244D01*
X139740Y153180D01*
X139774Y153114D01*
X139805Y153045D01*
X139832Y152976D01*
X139855Y152905D01*
X139874Y152833D01*
X139890Y152760D01*
X139902Y152686D01*
X139910Y152612D01*
X139914Y152537D01*
X139914Y152463D01*
X139910Y152388D01*
X139902Y152314D01*
X139890Y152240D01*
X139874Y152167D01*
X139855Y152095D01*
X139832Y152024D01*
X139805Y151955D01*
X139774Y151886D01*
X139740Y151820D01*
X139702Y151756D01*
X139661Y151693D01*
X139617Y151633D01*
X139570Y151575D01*
X139519Y151520D01*
X139466Y151468D01*
X139410Y151418D01*
X139352Y151372D01*
X139291Y151328D01*
X139228Y151288D01*
X139163Y151251D01*
X139097Y151218D01*
X139028Y151188D01*
X138958Y151162D01*
X138887Y151140D01*
X138815Y151121D01*
X138741Y151107D01*
X138668Y151096D01*
X138593Y151089D01*
X138519Y151086D01*
X138444Y151087D01*
X138370Y151092D01*
X138295Y151101D01*
X138222Y151114D01*
X138149Y151130D01*
X138077Y151151D01*
X138007Y151175D01*
X137937Y151203D01*
X137870Y151234D01*
X137804Y151269D01*
X137740Y151308D01*
X137678Y151350D01*
X137618Y151394D01*
X137561Y151443D01*
X137507Y151494D01*
X137455Y151547D01*
X137406Y151604D01*
X137360Y151663D01*
X137318Y151724D01*
X137279Y151788D01*
X137243Y151853D01*
X137210Y151920D01*
X137181Y151989D01*
X137156Y152060D01*
X137135Y152131D01*
X137117Y152204D01*
X137104Y152277D01*
X137094Y152351D01*
X137088Y152425D01*
X137086Y152500D01*
D11*
X122000Y168000D02*
X155000Y168000D01*
X155000Y135500D01*
X122000Y135500D01*
X122000Y168000D01*
D13*
X154246Y21342D02*
X152383Y15754D01*
X150521Y21342D01*
X147224Y15754D02*
X145982Y15754D01*
X147224Y15754D02*
X147294Y15756D01*
X147363Y15762D01*
X147432Y15772D01*
X147500Y15785D01*
X147568Y15803D01*
X147634Y15824D01*
X147699Y15849D01*
X147763Y15877D01*
X147825Y15909D01*
X147885Y15944D01*
X147943Y15983D01*
X147998Y16025D01*
X148052Y16070D01*
X148102Y16118D01*
X148150Y16168D01*
X148195Y16222D01*
X148237Y16277D01*
X148276Y16335D01*
X148311Y16395D01*
X148343Y16457D01*
X148371Y16521D01*
X148396Y16586D01*
X148417Y16652D01*
X148435Y16720D01*
X148448Y16788D01*
X148458Y16857D01*
X148464Y16926D01*
X148466Y16996D01*
X148465Y16996D02*
X148465Y20100D01*
X148466Y20100D02*
X148464Y20170D01*
X148458Y20239D01*
X148448Y20308D01*
X148435Y20376D01*
X148417Y20444D01*
X148396Y20510D01*
X148371Y20575D01*
X148343Y20639D01*
X148311Y20701D01*
X148276Y20761D01*
X148237Y20819D01*
X148195Y20874D01*
X148150Y20928D01*
X148102Y20978D01*
X148052Y21026D01*
X147998Y21071D01*
X147943Y21113D01*
X147885Y21152D01*
X147825Y21187D01*
X147763Y21219D01*
X147699Y21247D01*
X147634Y21272D01*
X147568Y21293D01*
X147500Y21311D01*
X147432Y21324D01*
X147363Y21334D01*
X147294Y21340D01*
X147224Y21342D01*
X145982Y21342D01*
X142652Y15754D02*
X141410Y15754D01*
X142652Y15754D02*
X142722Y15756D01*
X142791Y15762D01*
X142860Y15772D01*
X142928Y15785D01*
X142996Y15803D01*
X143062Y15824D01*
X143127Y15849D01*
X143191Y15877D01*
X143253Y15909D01*
X143313Y15944D01*
X143371Y15983D01*
X143426Y16025D01*
X143480Y16070D01*
X143530Y16118D01*
X143578Y16168D01*
X143623Y16222D01*
X143665Y16277D01*
X143704Y16335D01*
X143739Y16395D01*
X143771Y16457D01*
X143799Y16521D01*
X143824Y16586D01*
X143845Y16652D01*
X143863Y16720D01*
X143876Y16788D01*
X143886Y16857D01*
X143892Y16926D01*
X143894Y16996D01*
X143894Y20100D01*
X143892Y20170D01*
X143886Y20239D01*
X143876Y20308D01*
X143863Y20376D01*
X143845Y20444D01*
X143824Y20510D01*
X143799Y20575D01*
X143771Y20639D01*
X143739Y20701D01*
X143704Y20761D01*
X143665Y20819D01*
X143623Y20874D01*
X143578Y20928D01*
X143530Y20978D01*
X143480Y21026D01*
X143426Y21071D01*
X143371Y21113D01*
X143313Y21152D01*
X143253Y21187D01*
X143191Y21219D01*
X143127Y21247D01*
X143062Y21272D01*
X142996Y21293D01*
X142928Y21311D01*
X142860Y21324D01*
X142791Y21334D01*
X142722Y21340D01*
X142652Y21342D01*
X141410Y21342D01*
X50573Y18858D02*
X49642Y18858D01*
X49642Y15754D01*
X51504Y15754D01*
X51574Y15756D01*
X51643Y15762D01*
X51712Y15772D01*
X51780Y15785D01*
X51848Y15803D01*
X51914Y15824D01*
X51979Y15849D01*
X52043Y15877D01*
X52105Y15909D01*
X52165Y15944D01*
X52223Y15983D01*
X52278Y16025D01*
X52332Y16070D01*
X52382Y16118D01*
X52430Y16168D01*
X52475Y16222D01*
X52517Y16277D01*
X52556Y16335D01*
X52591Y16395D01*
X52623Y16457D01*
X52651Y16521D01*
X52676Y16586D01*
X52697Y16652D01*
X52715Y16720D01*
X52728Y16788D01*
X52738Y16857D01*
X52744Y16926D01*
X52746Y16996D01*
X52746Y20100D01*
X52744Y20170D01*
X52738Y20239D01*
X52728Y20308D01*
X52715Y20376D01*
X52697Y20444D01*
X52676Y20510D01*
X52651Y20575D01*
X52623Y20639D01*
X52591Y20701D01*
X52556Y20761D01*
X52517Y20819D01*
X52475Y20874D01*
X52430Y20928D01*
X52382Y20978D01*
X52332Y21026D01*
X52278Y21071D01*
X52223Y21113D01*
X52165Y21152D01*
X52105Y21187D01*
X52043Y21219D01*
X51979Y21247D01*
X51914Y21272D01*
X51848Y21293D01*
X51780Y21311D01*
X51712Y21324D01*
X51643Y21334D01*
X51574Y21340D01*
X51504Y21342D01*
X49642Y21342D01*
X46894Y21342D02*
X46894Y15754D01*
X43789Y15754D02*
X46894Y21342D01*
X43789Y21342D02*
X43789Y15754D01*
X41042Y15754D02*
X41042Y21342D01*
X39490Y21342D01*
X39414Y21340D01*
X39338Y21335D01*
X39262Y21325D01*
X39187Y21312D01*
X39113Y21295D01*
X39039Y21275D01*
X38967Y21251D01*
X38896Y21224D01*
X38826Y21193D01*
X38758Y21159D01*
X38692Y21121D01*
X38628Y21080D01*
X38565Y21037D01*
X38505Y20990D01*
X38448Y20940D01*
X38393Y20887D01*
X38340Y20832D01*
X38290Y20775D01*
X38243Y20715D01*
X38200Y20652D01*
X38159Y20588D01*
X38121Y20522D01*
X38087Y20454D01*
X38056Y20384D01*
X38029Y20313D01*
X38005Y20241D01*
X37985Y20167D01*
X37968Y20093D01*
X37955Y20018D01*
X37945Y19942D01*
X37940Y19866D01*
X37938Y19790D01*
X37937Y19790D02*
X37937Y17306D01*
X37938Y17306D02*
X37940Y17230D01*
X37945Y17154D01*
X37955Y17078D01*
X37968Y17003D01*
X37985Y16929D01*
X38005Y16855D01*
X38029Y16783D01*
X38056Y16712D01*
X38087Y16642D01*
X38121Y16574D01*
X38159Y16508D01*
X38200Y16444D01*
X38243Y16381D01*
X38290Y16321D01*
X38340Y16264D01*
X38393Y16209D01*
X38448Y16156D01*
X38505Y16106D01*
X38565Y16059D01*
X38628Y16016D01*
X38692Y15975D01*
X38758Y15937D01*
X38826Y15903D01*
X38896Y15872D01*
X38967Y15845D01*
X39039Y15821D01*
X39113Y15801D01*
X39187Y15784D01*
X39262Y15771D01*
X39338Y15761D01*
X39414Y15756D01*
X39490Y15754D01*
X41042Y15754D01*
X54694Y155754D02*
X54694Y161342D01*
X56246Y161342D02*
X53142Y161342D01*
X47711Y161342D02*
X51436Y155754D01*
X47711Y155754D02*
X51436Y161342D01*
X45456Y161342D02*
X45456Y155754D01*
X45456Y161342D02*
X43904Y161342D01*
X43828Y161340D01*
X43752Y161335D01*
X43676Y161325D01*
X43601Y161312D01*
X43527Y161295D01*
X43453Y161275D01*
X43381Y161251D01*
X43310Y161224D01*
X43240Y161193D01*
X43172Y161159D01*
X43106Y161121D01*
X43042Y161080D01*
X42979Y161037D01*
X42919Y160990D01*
X42862Y160940D01*
X42807Y160887D01*
X42754Y160832D01*
X42704Y160775D01*
X42657Y160715D01*
X42614Y160652D01*
X42573Y160588D01*
X42535Y160522D01*
X42501Y160454D01*
X42470Y160384D01*
X42443Y160313D01*
X42419Y160241D01*
X42399Y160167D01*
X42382Y160093D01*
X42369Y160018D01*
X42359Y159942D01*
X42354Y159866D01*
X42352Y159790D01*
X42352Y157306D01*
X42354Y157230D01*
X42359Y157154D01*
X42369Y157078D01*
X42382Y157003D01*
X42399Y156929D01*
X42419Y156855D01*
X42443Y156783D01*
X42470Y156712D01*
X42501Y156642D01*
X42535Y156574D01*
X42573Y156508D01*
X42614Y156444D01*
X42657Y156381D01*
X42704Y156321D01*
X42754Y156264D01*
X42807Y156209D01*
X42862Y156156D01*
X42919Y156106D01*
X42979Y156059D01*
X43042Y156016D01*
X43106Y155975D01*
X43172Y155937D01*
X43240Y155903D01*
X43310Y155872D01*
X43381Y155845D01*
X43453Y155821D01*
X43527Y155801D01*
X43601Y155784D01*
X43676Y155771D01*
X43752Y155761D01*
X43828Y155756D01*
X43904Y155754D01*
X45456Y155754D01*
X39787Y158548D02*
X39785Y158679D01*
X39780Y158809D01*
X39770Y158939D01*
X39757Y159069D01*
X39741Y159199D01*
X39721Y159328D01*
X39697Y159456D01*
X39669Y159583D01*
X39638Y159710D01*
X39603Y159836D01*
X39565Y159961D01*
X39523Y160085D01*
X39478Y160207D01*
X39429Y160328D01*
X39377Y160448D01*
X39321Y160566D01*
X39322Y160566D02*
X39299Y160626D01*
X39273Y160686D01*
X39244Y160743D01*
X39211Y160799D01*
X39175Y160853D01*
X39137Y160905D01*
X39095Y160955D01*
X39051Y161002D01*
X39004Y161047D01*
X38954Y161089D01*
X38903Y161128D01*
X38849Y161164D01*
X38793Y161197D01*
X38736Y161227D01*
X38677Y161254D01*
X38616Y161277D01*
X38555Y161297D01*
X38492Y161313D01*
X38428Y161326D01*
X38364Y161335D01*
X38300Y161340D01*
X38235Y161342D01*
X38170Y161340D01*
X38106Y161335D01*
X38042Y161326D01*
X37978Y161313D01*
X37915Y161297D01*
X37854Y161277D01*
X37793Y161254D01*
X37734Y161227D01*
X37677Y161197D01*
X37621Y161164D01*
X37567Y161128D01*
X37516Y161089D01*
X37466Y161047D01*
X37419Y161002D01*
X37375Y160955D01*
X37333Y160905D01*
X37295Y160853D01*
X37259Y160799D01*
X37226Y160743D01*
X37197Y160686D01*
X37171Y160626D01*
X37148Y160566D01*
X37092Y160448D01*
X37040Y160328D01*
X36991Y160207D01*
X36946Y160085D01*
X36904Y159961D01*
X36866Y159836D01*
X36831Y159710D01*
X36800Y159584D01*
X36772Y159456D01*
X36748Y159328D01*
X36728Y159199D01*
X36712Y159069D01*
X36699Y158939D01*
X36689Y158809D01*
X36684Y158679D01*
X36682Y158548D01*
X39787Y158548D02*
X39785Y158417D01*
X39780Y158287D01*
X39770Y158157D01*
X39757Y158027D01*
X39741Y157897D01*
X39721Y157769D01*
X39697Y157640D01*
X39669Y157513D01*
X39638Y157386D01*
X39603Y157260D01*
X39565Y157135D01*
X39523Y157012D01*
X39478Y156889D01*
X39429Y156768D01*
X39377Y156648D01*
X39321Y156530D01*
X39322Y156530D02*
X39299Y156470D01*
X39273Y156410D01*
X39244Y156353D01*
X39211Y156297D01*
X39175Y156243D01*
X39137Y156191D01*
X39095Y156141D01*
X39051Y156094D01*
X39004Y156049D01*
X38954Y156007D01*
X38903Y155968D01*
X38849Y155932D01*
X38793Y155899D01*
X38736Y155869D01*
X38677Y155842D01*
X38616Y155819D01*
X38555Y155799D01*
X38492Y155783D01*
X38428Y155770D01*
X38364Y155761D01*
X38300Y155756D01*
X38235Y155754D01*
X37148Y156530D02*
X37092Y156648D01*
X37040Y156768D01*
X36991Y156889D01*
X36946Y157011D01*
X36904Y157135D01*
X36866Y157260D01*
X36831Y157386D01*
X36800Y157512D01*
X36772Y157640D01*
X36748Y157768D01*
X36728Y157897D01*
X36712Y158027D01*
X36699Y158157D01*
X36689Y158287D01*
X36684Y158417D01*
X36682Y158548D01*
X37148Y156530D02*
X37171Y156470D01*
X37197Y156410D01*
X37226Y156353D01*
X37259Y156297D01*
X37295Y156243D01*
X37333Y156191D01*
X37375Y156141D01*
X37419Y156094D01*
X37466Y156049D01*
X37516Y156007D01*
X37567Y155968D01*
X37621Y155932D01*
X37677Y155899D01*
X37734Y155869D01*
X37793Y155842D01*
X37854Y155819D01*
X37915Y155799D01*
X37978Y155783D01*
X38042Y155770D01*
X38106Y155761D01*
X38170Y155756D01*
X38235Y155754D01*
X39476Y156996D02*
X36993Y160100D01*
D14*
X175806Y168548D02*
X175806Y173548D01*
X15806Y173548D01*
X15806Y168548D01*
X175806Y8548D02*
X175806Y3548D01*
X15806Y3548D01*
X15806Y8548D01*
D15*
X193806Y160548D03*
D12*
X193868Y160546D01*
X193929Y160540D01*
X193990Y160531D01*
X194050Y160518D01*
X194109Y160501D01*
X194167Y160480D01*
X194224Y160456D01*
X194279Y160429D01*
X194332Y160398D01*
X194384Y160364D01*
X194433Y160327D01*
X194480Y160287D01*
X194524Y160244D01*
X194565Y160199D01*
X194604Y160151D01*
X194640Y160100D01*
X194672Y160048D01*
X194701Y159994D01*
X194727Y159938D01*
X194749Y159880D01*
X194768Y159822D01*
X194783Y159762D01*
X194794Y159701D01*
X194802Y159640D01*
X194806Y159579D01*
X194806Y159517D01*
X194802Y159456D01*
X194794Y159395D01*
X194783Y159334D01*
X194768Y159274D01*
X194749Y159216D01*
X194727Y159158D01*
X194701Y159102D01*
X194672Y159048D01*
X194640Y158996D01*
X194604Y158945D01*
X194565Y158897D01*
X194524Y158852D01*
X194480Y158809D01*
X194433Y158769D01*
X194384Y158732D01*
X194332Y158698D01*
X194279Y158667D01*
X194224Y158640D01*
X194167Y158616D01*
X194109Y158595D01*
X194050Y158578D01*
X193990Y158565D01*
X193929Y158556D01*
X193868Y158550D01*
X193806Y158548D01*
D15*
X193806Y158548D03*
D12*
X193744Y158550D01*
X193683Y158556D01*
X193622Y158565D01*
X193562Y158578D01*
X193503Y158595D01*
X193445Y158616D01*
X193388Y158640D01*
X193333Y158667D01*
X193280Y158698D01*
X193228Y158732D01*
X193179Y158769D01*
X193132Y158809D01*
X193088Y158852D01*
X193047Y158897D01*
X193008Y158945D01*
X192972Y158996D01*
X192940Y159048D01*
X192911Y159102D01*
X192885Y159158D01*
X192863Y159216D01*
X192844Y159274D01*
X192829Y159334D01*
X192818Y159395D01*
X192810Y159456D01*
X192806Y159517D01*
X192806Y159579D01*
X192810Y159640D01*
X192818Y159701D01*
X192829Y159762D01*
X192844Y159822D01*
X192863Y159880D01*
X192885Y159938D01*
X192911Y159994D01*
X192940Y160048D01*
X192972Y160100D01*
X193008Y160151D01*
X193047Y160199D01*
X193088Y160244D01*
X193132Y160287D01*
X193179Y160327D01*
X193228Y160364D01*
X193280Y160398D01*
X193333Y160429D01*
X193388Y160456D01*
X193445Y160480D01*
X193503Y160501D01*
X193562Y160518D01*
X193622Y160531D01*
X193683Y160540D01*
X193744Y160546D01*
X193806Y160548D01*
D13*
X125669Y75475D02*
X125669Y73894D01*
X125668Y75475D02*
X125666Y75554D01*
X125660Y75632D01*
X125650Y75710D01*
X125637Y75788D01*
X125619Y75865D01*
X125598Y75941D01*
X125573Y76015D01*
X125544Y76089D01*
X125512Y76161D01*
X125476Y76231D01*
X125436Y76299D01*
X125393Y76365D01*
X125347Y76429D01*
X125298Y76491D01*
X125246Y76550D01*
X125191Y76606D01*
X125133Y76660D01*
X125073Y76710D01*
X125010Y76758D01*
X124945Y76802D01*
X124878Y76843D01*
X124809Y76881D01*
X124738Y76915D01*
X124665Y76946D01*
X124591Y76973D01*
X124516Y76996D01*
X124440Y77015D01*
X124362Y77031D01*
X124284Y77043D01*
X124206Y77051D01*
X124127Y77055D01*
X124049Y77055D01*
X123970Y77051D01*
X123892Y77043D01*
X123814Y77031D01*
X123736Y77015D01*
X123660Y76996D01*
X123585Y76973D01*
X123511Y76946D01*
X123438Y76915D01*
X123367Y76881D01*
X123298Y76843D01*
X123231Y76802D01*
X123166Y76758D01*
X123103Y76710D01*
X123043Y76660D01*
X122985Y76606D01*
X122930Y76550D01*
X122878Y76491D01*
X122829Y76429D01*
X122783Y76365D01*
X122740Y76299D01*
X122700Y76231D01*
X122664Y76161D01*
X122632Y76089D01*
X122603Y76015D01*
X122578Y75941D01*
X122557Y75865D01*
X122539Y75788D01*
X122526Y75710D01*
X122516Y75632D01*
X122510Y75554D01*
X122508Y75475D01*
X122508Y73894D01*
X122510Y73815D01*
X122516Y73737D01*
X122526Y73659D01*
X122539Y73581D01*
X122557Y73504D01*
X122578Y73428D01*
X122603Y73354D01*
X122632Y73280D01*
X122664Y73208D01*
X122700Y73138D01*
X122740Y73070D01*
X122783Y73004D01*
X122829Y72940D01*
X122878Y72878D01*
X122930Y72819D01*
X122985Y72763D01*
X123043Y72709D01*
X123103Y72659D01*
X123166Y72611D01*
X123231Y72567D01*
X123298Y72526D01*
X123367Y72488D01*
X123438Y72454D01*
X123511Y72423D01*
X123585Y72396D01*
X123660Y72373D01*
X123736Y72354D01*
X123814Y72338D01*
X123892Y72326D01*
X123970Y72318D01*
X124049Y72314D01*
X124127Y72314D01*
X124206Y72318D01*
X124284Y72326D01*
X124362Y72338D01*
X124440Y72354D01*
X124516Y72373D01*
X124591Y72396D01*
X124665Y72423D01*
X124738Y72454D01*
X124809Y72488D01*
X124878Y72526D01*
X124945Y72567D01*
X125010Y72611D01*
X125073Y72659D01*
X125133Y72709D01*
X125191Y72763D01*
X125246Y72819D01*
X125298Y72878D01*
X125347Y72940D01*
X125393Y73004D01*
X125436Y73070D01*
X125476Y73138D01*
X125512Y73208D01*
X125544Y73280D01*
X125573Y73354D01*
X125598Y73428D01*
X125619Y73504D01*
X125637Y73581D01*
X125650Y73659D01*
X125660Y73737D01*
X125666Y73815D01*
X125668Y73894D01*
X119464Y77055D02*
X119464Y69943D01*
X119464Y77055D02*
X117489Y77055D01*
X117423Y77053D01*
X117356Y77048D01*
X117291Y77038D01*
X117225Y77025D01*
X117161Y77009D01*
X117098Y76989D01*
X117036Y76965D01*
X116975Y76938D01*
X116916Y76907D01*
X116859Y76873D01*
X116803Y76836D01*
X116750Y76796D01*
X116699Y76754D01*
X116651Y76708D01*
X116605Y76660D01*
X116563Y76609D01*
X116523Y76556D01*
X116486Y76500D01*
X116452Y76443D01*
X116421Y76384D01*
X116394Y76324D01*
X116371Y76261D01*
X116350Y76198D01*
X116334Y76134D01*
X116321Y76069D01*
X116311Y76003D01*
X116306Y75937D01*
X116304Y75870D01*
X116303Y75870D02*
X116303Y73499D01*
X116304Y73499D02*
X116306Y73433D01*
X116311Y73366D01*
X116321Y73301D01*
X116334Y73235D01*
X116350Y73171D01*
X116371Y73108D01*
X116394Y73046D01*
X116421Y72985D01*
X116452Y72926D01*
X116486Y72869D01*
X116523Y72813D01*
X116563Y72760D01*
X116605Y72709D01*
X116651Y72661D01*
X116699Y72615D01*
X116750Y72573D01*
X116803Y72533D01*
X116859Y72496D01*
X116916Y72462D01*
X116975Y72431D01*
X117036Y72404D01*
X117098Y72380D01*
X117161Y72360D01*
X117225Y72344D01*
X117291Y72331D01*
X117356Y72321D01*
X117423Y72316D01*
X117489Y72314D01*
X119464Y72314D01*
X112368Y72314D02*
X110392Y72314D01*
X112368Y72314D02*
X112434Y72316D01*
X112501Y72321D01*
X112566Y72331D01*
X112632Y72344D01*
X112696Y72360D01*
X112759Y72380D01*
X112821Y72404D01*
X112882Y72431D01*
X112941Y72462D01*
X112998Y72496D01*
X113054Y72533D01*
X113107Y72573D01*
X113158Y72615D01*
X113206Y72661D01*
X113252Y72709D01*
X113294Y72760D01*
X113334Y72813D01*
X113371Y72869D01*
X113405Y72926D01*
X113436Y72985D01*
X113463Y73046D01*
X113487Y73108D01*
X113507Y73171D01*
X113523Y73235D01*
X113536Y73301D01*
X113546Y73366D01*
X113551Y73433D01*
X113553Y73499D01*
X113553Y75475D01*
X113551Y75554D01*
X113545Y75632D01*
X113535Y75710D01*
X113522Y75788D01*
X113504Y75865D01*
X113483Y75941D01*
X113458Y76015D01*
X113429Y76089D01*
X113397Y76161D01*
X113361Y76231D01*
X113321Y76299D01*
X113278Y76365D01*
X113232Y76429D01*
X113183Y76491D01*
X113131Y76550D01*
X113076Y76606D01*
X113018Y76660D01*
X112958Y76710D01*
X112895Y76758D01*
X112830Y76802D01*
X112763Y76843D01*
X112694Y76881D01*
X112623Y76915D01*
X112550Y76946D01*
X112476Y76973D01*
X112401Y76996D01*
X112325Y77015D01*
X112247Y77031D01*
X112169Y77043D01*
X112091Y77051D01*
X112012Y77055D01*
X111934Y77055D01*
X111855Y77051D01*
X111777Y77043D01*
X111699Y77031D01*
X111621Y77015D01*
X111545Y76996D01*
X111470Y76973D01*
X111396Y76946D01*
X111323Y76915D01*
X111252Y76881D01*
X111183Y76843D01*
X111116Y76802D01*
X111051Y76758D01*
X110988Y76710D01*
X110928Y76660D01*
X110870Y76606D01*
X110815Y76550D01*
X110763Y76491D01*
X110714Y76429D01*
X110668Y76365D01*
X110625Y76299D01*
X110585Y76231D01*
X110549Y76161D01*
X110517Y76089D01*
X110488Y76015D01*
X110463Y75941D01*
X110442Y75865D01*
X110424Y75788D01*
X110411Y75710D01*
X110401Y75632D01*
X110395Y75554D01*
X110393Y75475D01*
X110392Y75475D02*
X110392Y74685D01*
X113553Y74685D01*
X107381Y72314D02*
X107381Y77055D01*
X105405Y77055D01*
X105339Y77053D01*
X105272Y77048D01*
X105207Y77038D01*
X105141Y77025D01*
X105077Y77009D01*
X105014Y76989D01*
X104952Y76965D01*
X104891Y76938D01*
X104832Y76907D01*
X104775Y76873D01*
X104719Y76836D01*
X104666Y76796D01*
X104615Y76754D01*
X104567Y76708D01*
X104521Y76660D01*
X104479Y76609D01*
X104439Y76556D01*
X104402Y76500D01*
X104368Y76443D01*
X104337Y76384D01*
X104310Y76324D01*
X104287Y76261D01*
X104266Y76198D01*
X104250Y76134D01*
X104237Y76069D01*
X104227Y76003D01*
X104222Y75937D01*
X104220Y75870D01*
X104220Y72314D01*
X96958Y75080D02*
X94983Y74290D01*
X96958Y75080D02*
X97016Y75105D01*
X97072Y75134D01*
X97127Y75166D01*
X97179Y75202D01*
X97229Y75241D01*
X97276Y75282D01*
X97321Y75327D01*
X97363Y75374D01*
X97402Y75423D01*
X97438Y75475D01*
X97471Y75529D01*
X97500Y75585D01*
X97526Y75643D01*
X97548Y75702D01*
X97566Y75763D01*
X97581Y75824D01*
X97592Y75886D01*
X97599Y75949D01*
X97602Y76012D01*
X97601Y76075D01*
X97596Y76138D01*
X97588Y76201D01*
X97575Y76263D01*
X97559Y76324D01*
X97539Y76384D01*
X97516Y76442D01*
X97489Y76499D01*
X97458Y76554D01*
X97424Y76608D01*
X97387Y76659D01*
X97347Y76707D01*
X97304Y76754D01*
X97258Y76797D01*
X97209Y76837D01*
X97158Y76875D01*
X97105Y76909D01*
X97050Y76940D01*
X96993Y76967D01*
X96935Y76991D01*
X96875Y77011D01*
X96814Y77027D01*
X96752Y77040D01*
X96689Y77049D01*
X96627Y77054D01*
X96563Y77055D01*
X96563Y77056D02*
X96432Y77052D01*
X96301Y77044D01*
X96171Y77033D01*
X96041Y77018D01*
X95911Y76998D01*
X95782Y76976D01*
X95654Y76949D01*
X95526Y76919D01*
X95400Y76885D01*
X95274Y76847D01*
X95150Y76806D01*
X95027Y76761D01*
X94905Y76712D01*
X94785Y76660D01*
X94983Y74289D02*
X94925Y74264D01*
X94869Y74235D01*
X94814Y74203D01*
X94762Y74167D01*
X94712Y74128D01*
X94665Y74087D01*
X94620Y74042D01*
X94578Y73995D01*
X94539Y73946D01*
X94503Y73894D01*
X94470Y73840D01*
X94441Y73784D01*
X94415Y73726D01*
X94393Y73667D01*
X94375Y73606D01*
X94360Y73545D01*
X94349Y73483D01*
X94342Y73420D01*
X94339Y73357D01*
X94340Y73294D01*
X94345Y73231D01*
X94353Y73168D01*
X94366Y73106D01*
X94382Y73045D01*
X94402Y72985D01*
X94425Y72927D01*
X94452Y72870D01*
X94483Y72815D01*
X94517Y72761D01*
X94554Y72710D01*
X94594Y72662D01*
X94637Y72615D01*
X94683Y72572D01*
X94732Y72532D01*
X94783Y72494D01*
X94836Y72460D01*
X94891Y72429D01*
X94948Y72402D01*
X95006Y72378D01*
X95066Y72358D01*
X95127Y72342D01*
X95189Y72329D01*
X95252Y72320D01*
X95314Y72315D01*
X95378Y72314D01*
X95536Y72318D01*
X95694Y72326D01*
X95852Y72337D01*
X96010Y72353D01*
X96168Y72372D01*
X96324Y72395D01*
X96481Y72421D01*
X96636Y72451D01*
X96791Y72485D01*
X96945Y72523D01*
X97098Y72564D01*
X97250Y72609D01*
X97401Y72657D01*
X97551Y72709D01*
X91608Y73894D02*
X91608Y75475D01*
X91607Y75475D02*
X91605Y75554D01*
X91599Y75632D01*
X91589Y75710D01*
X91576Y75788D01*
X91558Y75865D01*
X91537Y75941D01*
X91512Y76015D01*
X91483Y76089D01*
X91451Y76161D01*
X91415Y76231D01*
X91375Y76299D01*
X91332Y76365D01*
X91286Y76429D01*
X91237Y76491D01*
X91185Y76550D01*
X91130Y76606D01*
X91072Y76660D01*
X91012Y76710D01*
X90949Y76758D01*
X90884Y76802D01*
X90817Y76843D01*
X90748Y76881D01*
X90677Y76915D01*
X90604Y76946D01*
X90530Y76973D01*
X90455Y76996D01*
X90379Y77015D01*
X90301Y77031D01*
X90223Y77043D01*
X90145Y77051D01*
X90066Y77055D01*
X89988Y77055D01*
X89909Y77051D01*
X89831Y77043D01*
X89753Y77031D01*
X89675Y77015D01*
X89599Y76996D01*
X89524Y76973D01*
X89450Y76946D01*
X89377Y76915D01*
X89306Y76881D01*
X89237Y76843D01*
X89170Y76802D01*
X89105Y76758D01*
X89042Y76710D01*
X88982Y76660D01*
X88924Y76606D01*
X88869Y76550D01*
X88817Y76491D01*
X88768Y76429D01*
X88722Y76365D01*
X88679Y76299D01*
X88639Y76231D01*
X88603Y76161D01*
X88571Y76089D01*
X88542Y76015D01*
X88517Y75941D01*
X88496Y75865D01*
X88478Y75788D01*
X88465Y75710D01*
X88455Y75632D01*
X88449Y75554D01*
X88447Y75475D01*
X88447Y73894D01*
X88449Y73815D01*
X88455Y73737D01*
X88465Y73659D01*
X88478Y73581D01*
X88496Y73504D01*
X88517Y73428D01*
X88542Y73354D01*
X88571Y73280D01*
X88603Y73208D01*
X88639Y73138D01*
X88679Y73070D01*
X88722Y73004D01*
X88768Y72940D01*
X88817Y72878D01*
X88869Y72819D01*
X88924Y72763D01*
X88982Y72709D01*
X89042Y72659D01*
X89105Y72611D01*
X89170Y72567D01*
X89237Y72526D01*
X89306Y72488D01*
X89377Y72454D01*
X89450Y72423D01*
X89524Y72396D01*
X89599Y72373D01*
X89675Y72354D01*
X89753Y72338D01*
X89831Y72326D01*
X89909Y72318D01*
X89988Y72314D01*
X90066Y72314D01*
X90145Y72318D01*
X90223Y72326D01*
X90301Y72338D01*
X90379Y72354D01*
X90455Y72373D01*
X90530Y72396D01*
X90604Y72423D01*
X90677Y72454D01*
X90748Y72488D01*
X90817Y72526D01*
X90884Y72567D01*
X90949Y72611D01*
X91012Y72659D01*
X91072Y72709D01*
X91130Y72763D01*
X91185Y72819D01*
X91237Y72878D01*
X91286Y72940D01*
X91332Y73004D01*
X91375Y73070D01*
X91415Y73138D01*
X91451Y73208D01*
X91483Y73280D01*
X91512Y73354D01*
X91537Y73428D01*
X91558Y73504D01*
X91576Y73581D01*
X91589Y73659D01*
X91599Y73737D01*
X91605Y73815D01*
X91607Y73894D01*
X85435Y73499D02*
X85435Y77055D01*
X85435Y73499D02*
X85433Y73433D01*
X85428Y73366D01*
X85418Y73301D01*
X85405Y73235D01*
X85389Y73171D01*
X85369Y73108D01*
X85345Y73046D01*
X85318Y72985D01*
X85287Y72926D01*
X85253Y72869D01*
X85216Y72813D01*
X85176Y72760D01*
X85134Y72709D01*
X85088Y72661D01*
X85040Y72615D01*
X84989Y72573D01*
X84936Y72533D01*
X84880Y72496D01*
X84823Y72462D01*
X84764Y72431D01*
X84703Y72404D01*
X84641Y72380D01*
X84578Y72360D01*
X84514Y72344D01*
X84448Y72331D01*
X84383Y72321D01*
X84316Y72316D01*
X84250Y72314D01*
X82274Y72314D01*
X82274Y77055D01*
X78998Y77055D02*
X78998Y72314D01*
X78998Y77055D02*
X76627Y77055D01*
X76627Y76265D01*
X73270Y72314D02*
X71690Y72314D01*
X73270Y72314D02*
X73336Y72316D01*
X73403Y72321D01*
X73468Y72331D01*
X73534Y72344D01*
X73598Y72360D01*
X73661Y72380D01*
X73723Y72404D01*
X73784Y72431D01*
X73843Y72462D01*
X73900Y72496D01*
X73956Y72533D01*
X74009Y72573D01*
X74060Y72615D01*
X74108Y72661D01*
X74154Y72709D01*
X74196Y72760D01*
X74236Y72813D01*
X74273Y72869D01*
X74307Y72926D01*
X74338Y72985D01*
X74365Y73046D01*
X74389Y73108D01*
X74409Y73171D01*
X74425Y73235D01*
X74438Y73301D01*
X74448Y73366D01*
X74453Y73433D01*
X74455Y73499D01*
X74455Y75870D01*
X74453Y75936D01*
X74448Y76003D01*
X74438Y76068D01*
X74425Y76134D01*
X74409Y76198D01*
X74389Y76261D01*
X74365Y76323D01*
X74338Y76384D01*
X74307Y76443D01*
X74273Y76500D01*
X74236Y76556D01*
X74196Y76609D01*
X74154Y76660D01*
X74108Y76708D01*
X74060Y76754D01*
X74009Y76796D01*
X73956Y76836D01*
X73900Y76873D01*
X73843Y76907D01*
X73784Y76938D01*
X73723Y76965D01*
X73661Y76989D01*
X73598Y77009D01*
X73534Y77025D01*
X73468Y77038D01*
X73403Y77048D01*
X73336Y77053D01*
X73270Y77055D01*
X71690Y77055D01*
X68020Y72314D02*
X66044Y72314D01*
X68020Y72314D02*
X68086Y72316D01*
X68153Y72321D01*
X68218Y72331D01*
X68284Y72344D01*
X68348Y72360D01*
X68411Y72380D01*
X68473Y72404D01*
X68534Y72431D01*
X68593Y72462D01*
X68650Y72496D01*
X68706Y72533D01*
X68759Y72573D01*
X68810Y72615D01*
X68858Y72661D01*
X68904Y72709D01*
X68946Y72760D01*
X68986Y72813D01*
X69023Y72869D01*
X69057Y72926D01*
X69088Y72985D01*
X69115Y73046D01*
X69139Y73108D01*
X69159Y73171D01*
X69175Y73235D01*
X69188Y73301D01*
X69198Y73366D01*
X69203Y73433D01*
X69205Y73499D01*
X69205Y75475D01*
X69204Y75475D02*
X69202Y75554D01*
X69196Y75632D01*
X69186Y75710D01*
X69173Y75788D01*
X69155Y75865D01*
X69134Y75941D01*
X69109Y76015D01*
X69080Y76089D01*
X69048Y76161D01*
X69012Y76231D01*
X68972Y76299D01*
X68929Y76365D01*
X68883Y76429D01*
X68834Y76491D01*
X68782Y76550D01*
X68727Y76606D01*
X68669Y76660D01*
X68609Y76710D01*
X68546Y76758D01*
X68481Y76802D01*
X68414Y76843D01*
X68345Y76881D01*
X68274Y76915D01*
X68201Y76946D01*
X68127Y76973D01*
X68052Y76996D01*
X67976Y77015D01*
X67898Y77031D01*
X67820Y77043D01*
X67742Y77051D01*
X67663Y77055D01*
X67585Y77055D01*
X67506Y77051D01*
X67428Y77043D01*
X67350Y77031D01*
X67272Y77015D01*
X67196Y76996D01*
X67121Y76973D01*
X67047Y76946D01*
X66974Y76915D01*
X66903Y76881D01*
X66834Y76843D01*
X66767Y76802D01*
X66702Y76758D01*
X66639Y76710D01*
X66579Y76660D01*
X66521Y76606D01*
X66466Y76550D01*
X66414Y76491D01*
X66365Y76429D01*
X66319Y76365D01*
X66276Y76299D01*
X66236Y76231D01*
X66200Y76161D01*
X66168Y76089D01*
X66139Y76015D01*
X66114Y75941D01*
X66093Y75865D01*
X66075Y75788D01*
X66062Y75710D01*
X66052Y75632D01*
X66046Y75554D01*
X66044Y75475D01*
X66044Y74685D01*
X69205Y74685D01*
X116982Y67996D02*
X116982Y60884D01*
X116982Y65625D02*
X115006Y65625D01*
X114940Y65623D01*
X114873Y65618D01*
X114808Y65608D01*
X114742Y65595D01*
X114678Y65579D01*
X114615Y65559D01*
X114553Y65535D01*
X114492Y65508D01*
X114433Y65477D01*
X114376Y65443D01*
X114320Y65406D01*
X114267Y65366D01*
X114216Y65324D01*
X114168Y65278D01*
X114122Y65230D01*
X114080Y65179D01*
X114040Y65126D01*
X114003Y65070D01*
X113969Y65013D01*
X113938Y64954D01*
X113911Y64894D01*
X113888Y64831D01*
X113867Y64768D01*
X113851Y64704D01*
X113838Y64639D01*
X113828Y64573D01*
X113823Y64507D01*
X113821Y64440D01*
X113821Y60884D01*
X109459Y63650D02*
X107681Y63650D01*
X109459Y63650D02*
X109533Y63648D01*
X109606Y63642D01*
X109679Y63632D01*
X109751Y63619D01*
X109823Y63601D01*
X109893Y63580D01*
X109963Y63555D01*
X110030Y63526D01*
X110097Y63494D01*
X110161Y63459D01*
X110224Y63419D01*
X110284Y63377D01*
X110342Y63332D01*
X110397Y63283D01*
X110450Y63232D01*
X110500Y63178D01*
X110547Y63121D01*
X110591Y63062D01*
X110631Y63001D01*
X110669Y62937D01*
X110703Y62872D01*
X110733Y62805D01*
X110760Y62736D01*
X110783Y62666D01*
X110802Y62595D01*
X110818Y62523D01*
X110830Y62451D01*
X110838Y62377D01*
X110842Y62304D01*
X110842Y62230D01*
X110838Y62157D01*
X110830Y62083D01*
X110818Y62011D01*
X110802Y61939D01*
X110783Y61868D01*
X110760Y61798D01*
X110733Y61729D01*
X110703Y61662D01*
X110669Y61597D01*
X110631Y61533D01*
X110591Y61472D01*
X110547Y61413D01*
X110500Y61356D01*
X110450Y61302D01*
X110397Y61251D01*
X110342Y61202D01*
X110284Y61157D01*
X110224Y61115D01*
X110161Y61075D01*
X110097Y61040D01*
X110030Y61008D01*
X109963Y60979D01*
X109893Y60954D01*
X109823Y60933D01*
X109751Y60915D01*
X109679Y60902D01*
X109606Y60892D01*
X109533Y60886D01*
X109459Y60884D01*
X107681Y60884D01*
X107681Y64440D01*
X107682Y64440D02*
X107684Y64506D01*
X107689Y64573D01*
X107699Y64638D01*
X107712Y64704D01*
X107728Y64768D01*
X107749Y64831D01*
X107772Y64893D01*
X107799Y64954D01*
X107830Y65013D01*
X107864Y65070D01*
X107901Y65126D01*
X107941Y65179D01*
X107983Y65230D01*
X108029Y65278D01*
X108077Y65324D01*
X108128Y65366D01*
X108181Y65406D01*
X108237Y65443D01*
X108294Y65477D01*
X108353Y65508D01*
X108414Y65535D01*
X108476Y65559D01*
X108539Y65579D01*
X108603Y65595D01*
X108669Y65608D01*
X108734Y65618D01*
X108801Y65623D01*
X108867Y65625D01*
X110447Y65625D01*
X104373Y65625D02*
X104373Y60884D01*
X104373Y65625D02*
X102002Y65625D01*
X102002Y64835D01*
X96709Y67996D02*
X96709Y60884D01*
X98684Y60884D01*
X98750Y60886D01*
X98817Y60891D01*
X98882Y60901D01*
X98948Y60914D01*
X99012Y60930D01*
X99075Y60950D01*
X99137Y60974D01*
X99198Y61001D01*
X99257Y61032D01*
X99314Y61066D01*
X99370Y61103D01*
X99423Y61143D01*
X99474Y61185D01*
X99522Y61231D01*
X99568Y61279D01*
X99610Y61330D01*
X99650Y61383D01*
X99687Y61439D01*
X99721Y61496D01*
X99752Y61555D01*
X99779Y61616D01*
X99803Y61678D01*
X99823Y61741D01*
X99839Y61805D01*
X99852Y61871D01*
X99862Y61936D01*
X99867Y62003D01*
X99869Y62069D01*
X99869Y64440D01*
X99867Y64506D01*
X99862Y64573D01*
X99852Y64638D01*
X99839Y64704D01*
X99823Y64768D01*
X99803Y64831D01*
X99779Y64893D01*
X99752Y64954D01*
X99721Y65013D01*
X99687Y65070D01*
X99650Y65126D01*
X99610Y65179D01*
X99568Y65230D01*
X99522Y65278D01*
X99474Y65324D01*
X99423Y65366D01*
X99370Y65406D01*
X99314Y65443D01*
X99257Y65477D01*
X99198Y65508D01*
X99137Y65535D01*
X99075Y65559D01*
X99012Y65579D01*
X98948Y65595D01*
X98882Y65608D01*
X98817Y65618D01*
X98750Y65623D01*
X98684Y65625D01*
X96709Y65625D01*
X93769Y65625D02*
X92584Y60884D01*
X91399Y64045D01*
X90213Y60884D01*
X89028Y65625D01*
X84999Y63650D02*
X83221Y63650D01*
X84999Y63650D02*
X85073Y63648D01*
X85146Y63642D01*
X85219Y63632D01*
X85291Y63619D01*
X85363Y63601D01*
X85433Y63580D01*
X85503Y63555D01*
X85570Y63526D01*
X85637Y63494D01*
X85701Y63459D01*
X85764Y63419D01*
X85824Y63377D01*
X85882Y63332D01*
X85937Y63283D01*
X85990Y63232D01*
X86040Y63178D01*
X86087Y63121D01*
X86131Y63062D01*
X86171Y63001D01*
X86209Y62937D01*
X86243Y62872D01*
X86273Y62805D01*
X86300Y62736D01*
X86323Y62666D01*
X86342Y62595D01*
X86358Y62523D01*
X86370Y62451D01*
X86378Y62377D01*
X86382Y62304D01*
X86382Y62230D01*
X86378Y62157D01*
X86370Y62083D01*
X86358Y62011D01*
X86342Y61939D01*
X86323Y61868D01*
X86300Y61798D01*
X86273Y61729D01*
X86243Y61662D01*
X86209Y61597D01*
X86171Y61533D01*
X86131Y61472D01*
X86087Y61413D01*
X86040Y61356D01*
X85990Y61302D01*
X85937Y61251D01*
X85882Y61202D01*
X85824Y61157D01*
X85764Y61115D01*
X85701Y61075D01*
X85637Y61040D01*
X85570Y61008D01*
X85503Y60979D01*
X85433Y60954D01*
X85363Y60933D01*
X85291Y60915D01*
X85219Y60902D01*
X85146Y60892D01*
X85073Y60886D01*
X84999Y60884D01*
X83221Y60884D01*
X83221Y64440D01*
X83222Y64440D02*
X83224Y64506D01*
X83229Y64573D01*
X83239Y64638D01*
X83252Y64704D01*
X83268Y64768D01*
X83289Y64831D01*
X83312Y64893D01*
X83339Y64954D01*
X83370Y65013D01*
X83404Y65070D01*
X83441Y65126D01*
X83481Y65179D01*
X83523Y65230D01*
X83569Y65278D01*
X83617Y65324D01*
X83668Y65366D01*
X83721Y65406D01*
X83777Y65443D01*
X83834Y65477D01*
X83893Y65508D01*
X83954Y65535D01*
X84016Y65559D01*
X84079Y65579D01*
X84143Y65595D01*
X84209Y65608D01*
X84274Y65618D01*
X84341Y65623D01*
X84407Y65625D01*
X85987Y65625D01*
X79913Y65625D02*
X79913Y60884D01*
X79913Y65625D02*
X77542Y65625D01*
X77542Y64835D01*
X74192Y60884D02*
X72216Y60884D01*
X74192Y60884D02*
X74258Y60886D01*
X74325Y60891D01*
X74390Y60901D01*
X74456Y60914D01*
X74520Y60930D01*
X74583Y60950D01*
X74645Y60974D01*
X74706Y61001D01*
X74765Y61032D01*
X74822Y61066D01*
X74878Y61103D01*
X74931Y61143D01*
X74982Y61185D01*
X75030Y61231D01*
X75076Y61279D01*
X75118Y61330D01*
X75158Y61383D01*
X75195Y61439D01*
X75229Y61496D01*
X75260Y61555D01*
X75287Y61616D01*
X75311Y61678D01*
X75331Y61741D01*
X75347Y61805D01*
X75360Y61871D01*
X75370Y61936D01*
X75375Y62003D01*
X75377Y62069D01*
X75377Y64045D01*
X75375Y64124D01*
X75369Y64202D01*
X75359Y64280D01*
X75346Y64358D01*
X75328Y64435D01*
X75307Y64511D01*
X75282Y64585D01*
X75253Y64659D01*
X75221Y64731D01*
X75185Y64801D01*
X75145Y64869D01*
X75102Y64935D01*
X75056Y64999D01*
X75007Y65061D01*
X74955Y65120D01*
X74900Y65176D01*
X74842Y65230D01*
X74782Y65280D01*
X74719Y65328D01*
X74654Y65372D01*
X74587Y65413D01*
X74518Y65451D01*
X74447Y65485D01*
X74374Y65516D01*
X74300Y65543D01*
X74225Y65566D01*
X74149Y65585D01*
X74071Y65601D01*
X73993Y65613D01*
X73915Y65621D01*
X73836Y65625D01*
X73758Y65625D01*
X73679Y65621D01*
X73601Y65613D01*
X73523Y65601D01*
X73445Y65585D01*
X73369Y65566D01*
X73294Y65543D01*
X73220Y65516D01*
X73147Y65485D01*
X73076Y65451D01*
X73007Y65413D01*
X72940Y65372D01*
X72875Y65328D01*
X72812Y65280D01*
X72752Y65230D01*
X72694Y65176D01*
X72639Y65120D01*
X72587Y65061D01*
X72538Y64999D01*
X72492Y64935D01*
X72449Y64869D01*
X72409Y64801D01*
X72373Y64731D01*
X72341Y64659D01*
X72312Y64585D01*
X72287Y64511D01*
X72266Y64435D01*
X72248Y64358D01*
X72235Y64280D01*
X72225Y64202D01*
X72219Y64124D01*
X72217Y64045D01*
X72216Y64045D02*
X72216Y63255D01*
X75377Y63255D01*
M02*
