G04 EAGLE Gerber RS-274X export*
G75*
%MOMM*%
%FSLAX34Y34*%
%LPD*%
%INBottom Copper*%
%IPPOS*%
%AMOC8*
5,1,8,0,0,1.08239X$1,22.5*%
G01*
%ADD10R,2.600000X1.100000*%
%ADD11C,0.756400*%
%ADD12C,0.152400*%
%ADD13C,0.406400*%
%ADD14C,0.806400*%
%ADD15C,0.304800*%

G36*
X200020Y-10758D02*
X200020Y-10758D01*
X200039Y-10760D01*
X200141Y-10738D01*
X200243Y-10722D01*
X200260Y-10712D01*
X200280Y-10708D01*
X200369Y-10655D01*
X200460Y-10606D01*
X200474Y-10592D01*
X200491Y-10582D01*
X200558Y-10503D01*
X200630Y-10428D01*
X200638Y-10410D01*
X200651Y-10395D01*
X200690Y-10299D01*
X200733Y-10205D01*
X200735Y-10185D01*
X200743Y-10167D01*
X200761Y-10000D01*
X200761Y191166D01*
X200758Y191186D01*
X200760Y191206D01*
X200738Y191307D01*
X200722Y191409D01*
X200712Y191426D01*
X200708Y191446D01*
X200655Y191535D01*
X200606Y191626D01*
X200592Y191640D01*
X200582Y191657D01*
X200503Y191724D01*
X200428Y191796D01*
X200410Y191804D01*
X200395Y191817D01*
X200299Y191856D01*
X200205Y191899D01*
X200185Y191901D01*
X200167Y191909D01*
X200000Y191927D01*
X-10000Y191927D01*
X-10020Y191924D01*
X-10039Y191926D01*
X-10141Y191904D01*
X-10243Y191888D01*
X-10260Y191878D01*
X-10280Y191874D01*
X-10369Y191821D01*
X-10460Y191773D01*
X-10474Y191758D01*
X-10491Y191748D01*
X-10558Y191669D01*
X-10630Y191594D01*
X-10638Y191576D01*
X-10651Y191561D01*
X-10690Y191465D01*
X-10733Y191371D01*
X-10735Y191351D01*
X-10743Y191333D01*
X-10761Y191166D01*
X-10761Y-10000D01*
X-10758Y-10020D01*
X-10760Y-10039D01*
X-10738Y-10141D01*
X-10722Y-10243D01*
X-10712Y-10260D01*
X-10708Y-10280D01*
X-10655Y-10369D01*
X-10606Y-10460D01*
X-10592Y-10474D01*
X-10582Y-10491D01*
X-10503Y-10558D01*
X-10428Y-10630D01*
X-10410Y-10638D01*
X-10395Y-10651D01*
X-10299Y-10690D01*
X-10205Y-10733D01*
X-10185Y-10735D01*
X-10167Y-10743D01*
X-10000Y-10761D01*
X200000Y-10761D01*
X200020Y-10758D01*
G37*
%LPC*%
G36*
X159174Y11523D02*
X159174Y11523D01*
X158281Y12416D01*
X158281Y14230D01*
X158278Y14249D01*
X158280Y14269D01*
X158258Y14370D01*
X158241Y14473D01*
X158232Y14490D01*
X158228Y14510D01*
X158175Y14599D01*
X158126Y14690D01*
X158112Y14704D01*
X158102Y14721D01*
X158023Y14788D01*
X157948Y14859D01*
X157930Y14868D01*
X157915Y14881D01*
X157819Y14919D01*
X157725Y14963D01*
X157705Y14965D01*
X157687Y14973D01*
X157520Y14991D01*
X149808Y14991D01*
X149805Y14992D01*
X149772Y14991D01*
X149700Y14999D01*
X108893Y14999D01*
X108888Y14998D01*
X108882Y14999D01*
X107410Y14978D01*
X106368Y16019D01*
X106365Y16022D01*
X106360Y16027D01*
X104060Y18261D01*
X103989Y18310D01*
X103924Y18366D01*
X103914Y18370D01*
X102788Y19496D01*
X102784Y19499D01*
X102780Y19504D01*
X101724Y20529D01*
X101724Y22002D01*
X101723Y22006D01*
X101724Y22013D01*
X101701Y23605D01*
X101706Y23618D01*
X101711Y23667D01*
X101718Y23692D01*
X101717Y23722D01*
X101724Y23785D01*
X101724Y32663D01*
X101709Y32754D01*
X101702Y32844D01*
X101690Y32874D01*
X101684Y32906D01*
X101642Y32987D01*
X101606Y33071D01*
X101580Y33103D01*
X101569Y33124D01*
X101546Y33146D01*
X101501Y33202D01*
X100570Y34133D01*
X99724Y36175D01*
X99724Y38386D01*
X100570Y40428D01*
X102133Y41991D01*
X104176Y42837D01*
X106386Y42837D01*
X108429Y41991D01*
X109992Y40428D01*
X110838Y38386D01*
X110838Y36175D01*
X109992Y34133D01*
X109061Y33202D01*
X109007Y33128D01*
X108948Y33058D01*
X108936Y33028D01*
X108917Y33002D01*
X108890Y32915D01*
X108856Y32830D01*
X108852Y32789D01*
X108845Y32767D01*
X108846Y32735D01*
X108838Y32663D01*
X108838Y23859D01*
X108853Y23763D01*
X108862Y23667D01*
X108873Y23642D01*
X108877Y23616D01*
X108923Y23531D01*
X108962Y23442D01*
X108983Y23416D01*
X108992Y23399D01*
X109016Y23376D01*
X109069Y23313D01*
X110083Y22328D01*
X110153Y22279D01*
X110218Y22223D01*
X110253Y22209D01*
X110285Y22187D01*
X110367Y22163D01*
X110446Y22131D01*
X110495Y22126D01*
X110521Y22118D01*
X110551Y22120D01*
X110613Y22113D01*
X145713Y22113D01*
X145733Y22116D01*
X145752Y22114D01*
X145854Y22136D01*
X145956Y22152D01*
X145973Y22162D01*
X145993Y22166D01*
X146082Y22219D01*
X146173Y22268D01*
X146187Y22282D01*
X146204Y22292D01*
X146271Y22371D01*
X146342Y22446D01*
X146351Y22464D01*
X146364Y22479D01*
X146402Y22575D01*
X146446Y22669D01*
X146448Y22689D01*
X146456Y22707D01*
X146474Y22874D01*
X146474Y103181D01*
X146459Y103271D01*
X146452Y103362D01*
X146443Y103383D01*
X146443Y155379D01*
X153117Y162053D01*
X157520Y162053D01*
X157540Y162056D01*
X157559Y162054D01*
X157661Y162076D01*
X157763Y162092D01*
X157780Y162102D01*
X157800Y162106D01*
X157889Y162159D01*
X157980Y162208D01*
X157994Y162222D01*
X158011Y162232D01*
X158078Y162311D01*
X158149Y162386D01*
X158158Y162404D01*
X158171Y162419D01*
X158209Y162515D01*
X158253Y162609D01*
X158255Y162629D01*
X158263Y162647D01*
X158281Y162814D01*
X158281Y164679D01*
X159174Y165572D01*
X186437Y165572D01*
X187331Y164679D01*
X187331Y152416D01*
X186437Y151523D01*
X159174Y151523D01*
X158281Y152416D01*
X158281Y154178D01*
X158278Y154198D01*
X158280Y154217D01*
X158258Y154319D01*
X158241Y154421D01*
X158232Y154438D01*
X158228Y154458D01*
X158175Y154547D01*
X158126Y154638D01*
X158112Y154652D01*
X158102Y154669D01*
X158023Y154736D01*
X157948Y154808D01*
X157930Y154816D01*
X157915Y154829D01*
X157819Y154868D01*
X157725Y154911D01*
X157705Y154913D01*
X157687Y154921D01*
X157520Y154939D01*
X156379Y154939D01*
X156289Y154925D01*
X156198Y154917D01*
X156168Y154905D01*
X156136Y154900D01*
X156056Y154857D01*
X155972Y154821D01*
X155940Y154795D01*
X155919Y154784D01*
X155897Y154761D01*
X155841Y154716D01*
X153780Y152655D01*
X153733Y152591D01*
X153718Y152574D01*
X153714Y152567D01*
X153667Y152512D01*
X153655Y152482D01*
X153636Y152456D01*
X153609Y152369D01*
X153575Y152284D01*
X153571Y152243D01*
X153564Y152221D01*
X153565Y152188D01*
X153557Y152117D01*
X153557Y123190D01*
X153558Y123182D01*
X153558Y123179D01*
X153560Y123170D01*
X153558Y123151D01*
X153580Y123049D01*
X153596Y122947D01*
X153606Y122930D01*
X153610Y122910D01*
X153663Y122821D01*
X153712Y122730D01*
X153726Y122716D01*
X153736Y122699D01*
X153815Y122632D01*
X153890Y122560D01*
X153908Y122552D01*
X153923Y122539D01*
X154019Y122500D01*
X154113Y122457D01*
X154133Y122455D01*
X154151Y122447D01*
X154318Y122429D01*
X157520Y122429D01*
X157540Y122432D01*
X157559Y122430D01*
X157661Y122452D01*
X157763Y122468D01*
X157780Y122478D01*
X157800Y122482D01*
X157889Y122535D01*
X157980Y122584D01*
X157994Y122598D01*
X158011Y122608D01*
X158078Y122687D01*
X158149Y122762D01*
X158158Y122780D01*
X158171Y122795D01*
X158209Y122891D01*
X158253Y122985D01*
X158255Y123005D01*
X158263Y123023D01*
X158281Y123190D01*
X158281Y124679D01*
X159174Y125572D01*
X186437Y125572D01*
X187331Y124679D01*
X187331Y112416D01*
X186437Y111523D01*
X159174Y111523D01*
X158281Y112416D01*
X158281Y114554D01*
X158278Y114574D01*
X158280Y114593D01*
X158258Y114695D01*
X158241Y114797D01*
X158232Y114814D01*
X158228Y114834D01*
X158175Y114923D01*
X158126Y115014D01*
X158112Y115028D01*
X158102Y115045D01*
X158023Y115112D01*
X157948Y115184D01*
X157930Y115192D01*
X157915Y115205D01*
X157819Y115244D01*
X157725Y115287D01*
X157705Y115289D01*
X157687Y115297D01*
X157520Y115315D01*
X156676Y115315D01*
X156586Y115301D01*
X156495Y115293D01*
X156465Y115281D01*
X156433Y115276D01*
X156352Y115233D01*
X156268Y115197D01*
X156236Y115171D01*
X156216Y115160D01*
X156193Y115137D01*
X156138Y115092D01*
X153780Y112734D01*
X153727Y112661D01*
X153667Y112591D01*
X153655Y112561D01*
X153636Y112535D01*
X153609Y112448D01*
X153575Y112363D01*
X153571Y112322D01*
X153564Y112300D01*
X153565Y112267D01*
X153557Y112196D01*
X153557Y106789D01*
X153571Y106698D01*
X153579Y106608D01*
X153588Y106586D01*
X153588Y22874D01*
X153591Y22854D01*
X153589Y22834D01*
X153611Y22733D01*
X153627Y22631D01*
X153637Y22614D01*
X153641Y22594D01*
X153694Y22505D01*
X153742Y22414D01*
X153757Y22400D01*
X153767Y22383D01*
X153846Y22316D01*
X153921Y22244D01*
X153939Y22236D01*
X153954Y22223D01*
X154050Y22184D01*
X154144Y22141D01*
X154164Y22139D01*
X154182Y22131D01*
X154349Y22113D01*
X157520Y22113D01*
X157540Y22116D01*
X157559Y22114D01*
X157661Y22136D01*
X157763Y22152D01*
X157780Y22162D01*
X157800Y22166D01*
X157889Y22219D01*
X157980Y22268D01*
X157994Y22282D01*
X158011Y22292D01*
X158078Y22371D01*
X158149Y22446D01*
X158158Y22464D01*
X158171Y22479D01*
X158209Y22575D01*
X158253Y22669D01*
X158255Y22689D01*
X158263Y22707D01*
X158281Y22874D01*
X158281Y24679D01*
X159174Y25572D01*
X186437Y25572D01*
X187331Y24679D01*
X187331Y12416D01*
X186437Y11523D01*
X159174Y11523D01*
G37*
%LPD*%
%LPC*%
G36*
X5174Y51523D02*
X5174Y51523D01*
X4281Y52416D01*
X4281Y64679D01*
X5174Y65572D01*
X32437Y65572D01*
X33331Y64679D01*
X33331Y61722D01*
X33334Y61702D01*
X33332Y61683D01*
X33354Y61581D01*
X33370Y61479D01*
X33380Y61462D01*
X33384Y61442D01*
X33437Y61353D01*
X33485Y61262D01*
X33500Y61248D01*
X33510Y61231D01*
X33589Y61164D01*
X33664Y61092D01*
X33682Y61084D01*
X33697Y61071D01*
X33793Y61032D01*
X33887Y60989D01*
X33907Y60987D01*
X33925Y60979D01*
X34092Y60961D01*
X91334Y60961D01*
X91424Y60975D01*
X91515Y60983D01*
X91545Y60995D01*
X91577Y61000D01*
X91657Y61043D01*
X91741Y61079D01*
X91773Y61105D01*
X91794Y61116D01*
X91816Y61139D01*
X91872Y61184D01*
X106080Y75392D01*
X106133Y75466D01*
X106193Y75535D01*
X106205Y75565D01*
X106224Y75591D01*
X106250Y75678D01*
X106285Y75763D01*
X106289Y75804D01*
X106296Y75827D01*
X106295Y75859D01*
X106303Y75930D01*
X106303Y108683D01*
X106288Y108773D01*
X106281Y108864D01*
X106269Y108894D01*
X106263Y108926D01*
X106221Y109007D01*
X106185Y109090D01*
X106159Y109123D01*
X106148Y109143D01*
X106125Y109165D01*
X106080Y109221D01*
X104045Y111256D01*
X104045Y115653D01*
X107154Y118761D01*
X111550Y118761D01*
X114659Y115653D01*
X114659Y111256D01*
X112624Y109221D01*
X112570Y109147D01*
X112511Y109078D01*
X112499Y109048D01*
X112480Y109022D01*
X112453Y108935D01*
X112419Y108850D01*
X112414Y108809D01*
X112408Y108787D01*
X112408Y108754D01*
X112401Y108683D01*
X112401Y73089D01*
X94175Y54863D01*
X34092Y54863D01*
X34072Y54860D01*
X34052Y54862D01*
X33951Y54840D01*
X33849Y54824D01*
X33832Y54814D01*
X33812Y54810D01*
X33723Y54757D01*
X33632Y54708D01*
X33618Y54694D01*
X33601Y54684D01*
X33534Y54605D01*
X33462Y54530D01*
X33454Y54512D01*
X33441Y54497D01*
X33402Y54401D01*
X33359Y54307D01*
X33357Y54287D01*
X33349Y54269D01*
X33331Y54102D01*
X33331Y52416D01*
X32437Y51523D01*
X5174Y51523D01*
G37*
%LPD*%
%LPC*%
G36*
X5174Y131523D02*
X5174Y131523D01*
X4281Y132416D01*
X4281Y144679D01*
X5174Y145572D01*
X32437Y145572D01*
X33331Y144679D01*
X33331Y142355D01*
X33334Y142335D01*
X33332Y142316D01*
X33354Y142215D01*
X33370Y142112D01*
X33380Y142095D01*
X33384Y142075D01*
X33437Y141986D01*
X33485Y141895D01*
X33500Y141881D01*
X33510Y141864D01*
X33589Y141797D01*
X33664Y141726D01*
X33682Y141717D01*
X33697Y141704D01*
X33793Y141666D01*
X33887Y141622D01*
X33907Y141620D01*
X33925Y141612D01*
X34092Y141594D01*
X127998Y141577D01*
X128088Y141592D01*
X128179Y141599D01*
X128209Y141612D01*
X128241Y141617D01*
X128322Y141660D01*
X128406Y141695D01*
X128438Y141721D01*
X128458Y141732D01*
X128480Y141755D01*
X128537Y141800D01*
X130700Y143964D01*
X135096Y143964D01*
X138205Y140855D01*
X138205Y136459D01*
X135096Y133350D01*
X130700Y133350D01*
X128793Y135257D01*
X128719Y135310D01*
X128650Y135369D01*
X128620Y135381D01*
X128593Y135400D01*
X128506Y135427D01*
X128422Y135461D01*
X128381Y135466D01*
X128358Y135473D01*
X128326Y135472D01*
X128255Y135480D01*
X34092Y135496D01*
X34072Y135493D01*
X34052Y135495D01*
X33951Y135473D01*
X33849Y135457D01*
X33832Y135447D01*
X33812Y135443D01*
X33723Y135390D01*
X33632Y135342D01*
X33618Y135327D01*
X33601Y135317D01*
X33534Y135238D01*
X33462Y135163D01*
X33454Y135145D01*
X33441Y135130D01*
X33402Y135034D01*
X33359Y134940D01*
X33357Y134920D01*
X33349Y134902D01*
X33331Y134735D01*
X33331Y132416D01*
X32437Y131523D01*
X5174Y131523D01*
G37*
%LPD*%
%LPC*%
G36*
X5174Y151523D02*
X5174Y151523D01*
X4281Y152416D01*
X4281Y164679D01*
X5174Y165572D01*
X32437Y165572D01*
X33331Y164679D01*
X33331Y152416D01*
X32437Y151523D01*
X5174Y151523D01*
G37*
%LPD*%
%LPC*%
G36*
X159174Y131523D02*
X159174Y131523D01*
X158281Y132416D01*
X158281Y144679D01*
X159174Y145572D01*
X186437Y145572D01*
X187331Y144679D01*
X187331Y132416D01*
X186437Y131523D01*
X159174Y131523D01*
G37*
%LPD*%
%LPC*%
G36*
X5174Y111523D02*
X5174Y111523D01*
X4281Y112416D01*
X4281Y124679D01*
X5174Y125572D01*
X32437Y125572D01*
X33331Y124679D01*
X33331Y112416D01*
X32437Y111523D01*
X5174Y111523D01*
G37*
%LPD*%
%LPC*%
G36*
X159174Y91523D02*
X159174Y91523D01*
X158281Y92416D01*
X158281Y104679D01*
X159174Y105572D01*
X186437Y105572D01*
X187331Y104679D01*
X187331Y92416D01*
X186437Y91523D01*
X159174Y91523D01*
G37*
%LPD*%
%LPC*%
G36*
X5174Y91523D02*
X5174Y91523D01*
X4281Y92416D01*
X4281Y104679D01*
X5174Y105572D01*
X32437Y105572D01*
X33331Y104679D01*
X33331Y92416D01*
X32437Y91523D01*
X5174Y91523D01*
G37*
%LPD*%
%LPC*%
G36*
X159174Y71523D02*
X159174Y71523D01*
X158281Y72416D01*
X158281Y84679D01*
X159174Y85572D01*
X186437Y85572D01*
X187331Y84679D01*
X187331Y72416D01*
X186437Y71523D01*
X159174Y71523D01*
G37*
%LPD*%
%LPC*%
G36*
X5174Y71523D02*
X5174Y71523D01*
X4281Y72416D01*
X4281Y84679D01*
X5174Y85572D01*
X32437Y85572D01*
X33331Y84679D01*
X33331Y72416D01*
X32437Y71523D01*
X5174Y71523D01*
G37*
%LPD*%
%LPC*%
G36*
X159174Y51523D02*
X159174Y51523D01*
X158281Y52416D01*
X158281Y64679D01*
X159174Y65572D01*
X186437Y65572D01*
X187331Y64679D01*
X187331Y52416D01*
X186437Y51523D01*
X159174Y51523D01*
G37*
%LPD*%
%LPC*%
G36*
X159174Y31523D02*
X159174Y31523D01*
X158281Y32416D01*
X158281Y44679D01*
X159174Y45572D01*
X186437Y45572D01*
X187331Y44679D01*
X187331Y32416D01*
X186437Y31523D01*
X159174Y31523D01*
G37*
%LPD*%
%LPC*%
G36*
X5174Y31523D02*
X5174Y31523D01*
X4281Y32416D01*
X4281Y44679D01*
X5174Y45572D01*
X32437Y45572D01*
X33331Y44679D01*
X33331Y32416D01*
X32437Y31523D01*
X5174Y31523D01*
G37*
%LPD*%
%LPC*%
G36*
X20329Y20071D02*
X20329Y20071D01*
X20329Y26588D01*
X32140Y26588D01*
X32787Y26415D01*
X33366Y26081D01*
X33839Y25608D01*
X34173Y25028D01*
X34347Y24382D01*
X34347Y20071D01*
X20329Y20071D01*
G37*
%LPD*%
%LPC*%
G36*
X3265Y20071D02*
X3265Y20071D01*
X3265Y24382D01*
X3438Y25028D01*
X3773Y25608D01*
X4246Y26081D01*
X4825Y26415D01*
X5471Y26588D01*
X17283Y26588D01*
X17283Y20071D01*
X3265Y20071D01*
G37*
%LPD*%
%LPC*%
G36*
X20329Y10507D02*
X20329Y10507D01*
X20329Y17025D01*
X34347Y17025D01*
X34347Y12713D01*
X34173Y12067D01*
X33839Y11488D01*
X33366Y11015D01*
X32787Y10680D01*
X32140Y10507D01*
X20329Y10507D01*
G37*
%LPD*%
%LPC*%
G36*
X5471Y10507D02*
X5471Y10507D01*
X4825Y10680D01*
X4246Y11015D01*
X3773Y11488D01*
X3438Y12067D01*
X3265Y12713D01*
X3265Y17025D01*
X17283Y17025D01*
X17283Y10507D01*
X5471Y10507D01*
G37*
%LPD*%
%LPC*%
G36*
X18805Y18547D02*
X18805Y18547D01*
X18805Y18549D01*
X18807Y18549D01*
X18807Y18547D01*
X18805Y18547D01*
G37*
%LPD*%
D10*
X172806Y158548D03*
X172806Y138548D03*
X172806Y118548D03*
X172806Y98548D03*
X172806Y78548D03*
X172806Y58548D03*
X172806Y38548D03*
X172806Y18548D03*
X18806Y18548D03*
X18806Y38548D03*
X18806Y58548D03*
X18806Y78548D03*
X18806Y98548D03*
X18806Y118548D03*
X18806Y138548D03*
X18806Y158548D03*
D11*
X71112Y38145D03*
X93513Y148223D03*
X132580Y75717D03*
X57976Y105616D03*
X37073Y150566D03*
X45000Y15000D03*
D12*
X172212Y19812D02*
X172806Y18548D01*
X172806Y118548D02*
X172212Y118872D01*
X172212Y158496D02*
X172806Y158548D01*
D13*
X150031Y20014D02*
X151497Y18548D01*
X172806Y18548D01*
X150031Y20014D02*
X150031Y104969D01*
X150000Y105000D01*
X150000Y113985D01*
X154887Y118872D02*
X172212Y118872D01*
X154887Y118872D02*
X150000Y113985D01*
X150000Y153906D01*
X154590Y158496D02*
X172212Y158496D01*
X154590Y158496D02*
X150000Y153906D01*
D14*
X105281Y37280D03*
D13*
X105281Y22033D01*
X108862Y18556D01*
X170215Y18556D01*
D15*
X172806Y18548D01*
D12*
X19812Y57912D02*
X18806Y58548D01*
D11*
X109352Y113455D03*
D15*
X109352Y74352D01*
X92912Y57912D02*
X19812Y57912D01*
X92912Y57912D02*
X109352Y74352D01*
X130196Y138528D02*
X18806Y138548D01*
X130196Y138528D02*
X132769Y138528D01*
X132898Y138657D01*
D11*
X132898Y138657D03*
X172823Y38648D03*
X172823Y58615D03*
M02*
