G04 EAGLE Gerber RS-274X export*
G75*
%MOMM*%
%FSLAX34Y34*%
%LPD*%
%INSilkscreen Top*%
%IPPOS*%
%AMOC8*
5,1,8,0,0,1.08239X$1,22.5*%
G01*
%ADD10C,0.152400*%
%ADD11C,0.101600*%
%ADD12C,0.076200*%
%ADD13C,0.200000*%


D10*
X61426Y20692D02*
X69637Y33009D01*
X61426Y33009D02*
X69637Y20692D01*
X76527Y20692D02*
X76527Y39168D01*
X76527Y20692D02*
X84739Y20692D01*
X91326Y23771D02*
X91326Y33009D01*
X91326Y23771D02*
X91328Y23661D01*
X91334Y23551D01*
X91344Y23442D01*
X91357Y23333D01*
X91375Y23224D01*
X91396Y23117D01*
X91422Y23010D01*
X91451Y22904D01*
X91484Y22799D01*
X91520Y22695D01*
X91560Y22593D01*
X91604Y22492D01*
X91652Y22393D01*
X91703Y22295D01*
X91757Y22200D01*
X91815Y22106D01*
X91876Y22015D01*
X91940Y21926D01*
X92008Y21839D01*
X92078Y21755D01*
X92151Y21673D01*
X92228Y21594D01*
X92307Y21517D01*
X92389Y21444D01*
X92473Y21374D01*
X92560Y21306D01*
X92649Y21242D01*
X92740Y21181D01*
X92834Y21123D01*
X92929Y21069D01*
X93027Y21018D01*
X93126Y20970D01*
X93227Y20926D01*
X93329Y20886D01*
X93433Y20850D01*
X93538Y20817D01*
X93644Y20788D01*
X93751Y20762D01*
X93858Y20741D01*
X93967Y20723D01*
X94076Y20710D01*
X94185Y20700D01*
X94295Y20694D01*
X94405Y20692D01*
X99537Y20692D01*
X99537Y33009D01*
X107673Y33009D02*
X107673Y20692D01*
X107673Y33009D02*
X116911Y33009D01*
X117021Y33007D01*
X117131Y33001D01*
X117240Y32991D01*
X117349Y32978D01*
X117458Y32960D01*
X117565Y32939D01*
X117672Y32913D01*
X117778Y32884D01*
X117883Y32851D01*
X117987Y32815D01*
X118089Y32775D01*
X118190Y32731D01*
X118289Y32683D01*
X118387Y32632D01*
X118482Y32578D01*
X118576Y32520D01*
X118667Y32459D01*
X118756Y32395D01*
X118843Y32327D01*
X118927Y32257D01*
X119009Y32184D01*
X119088Y32107D01*
X119165Y32028D01*
X119238Y31946D01*
X119308Y31862D01*
X119376Y31775D01*
X119440Y31686D01*
X119501Y31595D01*
X119559Y31501D01*
X119613Y31406D01*
X119664Y31308D01*
X119712Y31209D01*
X119756Y31108D01*
X119796Y31006D01*
X119832Y30902D01*
X119865Y30797D01*
X119894Y30691D01*
X119920Y30584D01*
X119941Y30477D01*
X119959Y30368D01*
X119972Y30259D01*
X119982Y30150D01*
X119988Y30040D01*
X119990Y29930D01*
X119990Y20692D01*
X113832Y20692D02*
X113832Y33009D01*
X130630Y20692D02*
X135762Y20692D01*
X130630Y20692D02*
X130520Y20694D01*
X130410Y20700D01*
X130301Y20710D01*
X130192Y20723D01*
X130083Y20741D01*
X129976Y20762D01*
X129869Y20788D01*
X129763Y20817D01*
X129658Y20850D01*
X129554Y20886D01*
X129452Y20926D01*
X129351Y20970D01*
X129252Y21018D01*
X129154Y21069D01*
X129059Y21123D01*
X128965Y21181D01*
X128874Y21242D01*
X128785Y21306D01*
X128698Y21374D01*
X128614Y21444D01*
X128532Y21517D01*
X128453Y21594D01*
X128376Y21673D01*
X128303Y21755D01*
X128233Y21839D01*
X128165Y21926D01*
X128101Y22015D01*
X128040Y22106D01*
X127982Y22200D01*
X127928Y22295D01*
X127877Y22393D01*
X127829Y22492D01*
X127785Y22593D01*
X127745Y22695D01*
X127709Y22799D01*
X127676Y22904D01*
X127647Y23010D01*
X127621Y23117D01*
X127600Y23224D01*
X127582Y23333D01*
X127569Y23442D01*
X127559Y23551D01*
X127553Y23661D01*
X127551Y23771D01*
X127551Y28903D01*
X127550Y28903D02*
X127552Y29029D01*
X127558Y29156D01*
X127568Y29282D01*
X127581Y29408D01*
X127599Y29533D01*
X127620Y29657D01*
X127645Y29781D01*
X127674Y29905D01*
X127707Y30027D01*
X127743Y30148D01*
X127783Y30268D01*
X127827Y30386D01*
X127875Y30503D01*
X127926Y30619D01*
X127980Y30733D01*
X128039Y30846D01*
X128100Y30956D01*
X128165Y31065D01*
X128233Y31171D01*
X128305Y31275D01*
X128379Y31377D01*
X128457Y31477D01*
X128538Y31574D01*
X128622Y31669D01*
X128708Y31761D01*
X128798Y31851D01*
X128890Y31937D01*
X128985Y32021D01*
X129082Y32102D01*
X129182Y32180D01*
X129284Y32254D01*
X129388Y32326D01*
X129494Y32394D01*
X129603Y32459D01*
X129713Y32520D01*
X129826Y32579D01*
X129940Y32633D01*
X130056Y32684D01*
X130173Y32732D01*
X130291Y32776D01*
X130411Y32816D01*
X130532Y32852D01*
X130654Y32885D01*
X130778Y32914D01*
X130902Y32939D01*
X131026Y32960D01*
X131151Y32978D01*
X131277Y32991D01*
X131403Y33001D01*
X131530Y33007D01*
X131656Y33009D01*
X131782Y33007D01*
X131909Y33001D01*
X132035Y32991D01*
X132161Y32978D01*
X132286Y32960D01*
X132410Y32939D01*
X132534Y32914D01*
X132658Y32885D01*
X132780Y32852D01*
X132901Y32816D01*
X133021Y32776D01*
X133139Y32732D01*
X133256Y32684D01*
X133372Y32633D01*
X133486Y32579D01*
X133599Y32520D01*
X133709Y32459D01*
X133818Y32394D01*
X133924Y32326D01*
X134028Y32254D01*
X134130Y32180D01*
X134230Y32102D01*
X134327Y32021D01*
X134422Y31937D01*
X134514Y31851D01*
X134604Y31761D01*
X134690Y31669D01*
X134774Y31574D01*
X134855Y31477D01*
X134933Y31377D01*
X135007Y31275D01*
X135079Y31171D01*
X135147Y31065D01*
X135212Y30956D01*
X135273Y30846D01*
X135332Y30733D01*
X135386Y30619D01*
X135437Y30503D01*
X135485Y30386D01*
X135529Y30268D01*
X135569Y30148D01*
X135605Y30027D01*
X135638Y29905D01*
X135667Y29781D01*
X135692Y29657D01*
X135713Y29533D01*
X135731Y29408D01*
X135744Y29282D01*
X135754Y29156D01*
X135760Y29029D01*
X135762Y28903D01*
X135762Y26850D01*
X127551Y26850D01*
D11*
X81185Y147017D02*
X81185Y154806D01*
X85080Y150912D02*
X77290Y150912D01*
X137748Y151761D02*
X145537Y151761D01*
D12*
X99794Y126432D02*
X99794Y119066D01*
X103068Y119066D01*
X106134Y119066D02*
X109408Y119066D01*
X106134Y119066D02*
X106134Y126432D01*
X109408Y126432D01*
X108589Y123158D02*
X106134Y123158D01*
X112458Y126432D02*
X112458Y119066D01*
X112458Y126432D02*
X114504Y126432D01*
X114593Y126430D01*
X114682Y126424D01*
X114771Y126414D01*
X114859Y126401D01*
X114947Y126384D01*
X115034Y126362D01*
X115119Y126337D01*
X115204Y126309D01*
X115287Y126276D01*
X115369Y126240D01*
X115449Y126201D01*
X115527Y126158D01*
X115603Y126112D01*
X115678Y126062D01*
X115750Y126009D01*
X115819Y125953D01*
X115886Y125894D01*
X115951Y125833D01*
X116012Y125768D01*
X116071Y125701D01*
X116127Y125632D01*
X116180Y125560D01*
X116230Y125485D01*
X116276Y125409D01*
X116319Y125331D01*
X116358Y125251D01*
X116394Y125169D01*
X116427Y125086D01*
X116455Y125001D01*
X116480Y124916D01*
X116502Y124829D01*
X116519Y124741D01*
X116532Y124653D01*
X116542Y124564D01*
X116548Y124475D01*
X116550Y124386D01*
X116550Y121112D01*
X116548Y121023D01*
X116542Y120934D01*
X116532Y120845D01*
X116519Y120757D01*
X116502Y120669D01*
X116480Y120582D01*
X116455Y120497D01*
X116427Y120412D01*
X116394Y120329D01*
X116358Y120247D01*
X116319Y120167D01*
X116276Y120089D01*
X116230Y120013D01*
X116180Y119938D01*
X116127Y119866D01*
X116071Y119797D01*
X116012Y119730D01*
X115951Y119665D01*
X115886Y119604D01*
X115819Y119545D01*
X115750Y119489D01*
X115678Y119436D01*
X115603Y119386D01*
X115527Y119340D01*
X115449Y119297D01*
X115369Y119258D01*
X115287Y119222D01*
X115204Y119189D01*
X115119Y119161D01*
X115034Y119136D01*
X114947Y119114D01*
X114859Y119097D01*
X114771Y119084D01*
X114682Y119074D01*
X114593Y119068D01*
X114504Y119066D01*
X112458Y119066D01*
X122229Y119066D02*
X122307Y119068D01*
X122385Y119073D01*
X122462Y119083D01*
X122539Y119096D01*
X122615Y119112D01*
X122690Y119132D01*
X122764Y119156D01*
X122837Y119183D01*
X122909Y119214D01*
X122979Y119248D01*
X123048Y119285D01*
X123114Y119326D01*
X123179Y119370D01*
X123241Y119416D01*
X123301Y119466D01*
X123359Y119518D01*
X123414Y119573D01*
X123466Y119631D01*
X123516Y119691D01*
X123562Y119753D01*
X123606Y119818D01*
X123647Y119885D01*
X123684Y119953D01*
X123718Y120023D01*
X123749Y120095D01*
X123776Y120168D01*
X123800Y120242D01*
X123820Y120317D01*
X123836Y120393D01*
X123849Y120470D01*
X123859Y120547D01*
X123864Y120625D01*
X123866Y120703D01*
X122229Y119066D02*
X122115Y119068D01*
X122002Y119073D01*
X121888Y119083D01*
X121775Y119096D01*
X121663Y119113D01*
X121551Y119133D01*
X121440Y119157D01*
X121329Y119185D01*
X121220Y119216D01*
X121112Y119251D01*
X121005Y119290D01*
X120899Y119332D01*
X120795Y119377D01*
X120692Y119426D01*
X120591Y119479D01*
X120492Y119534D01*
X120394Y119593D01*
X120299Y119655D01*
X120206Y119720D01*
X120114Y119788D01*
X120026Y119859D01*
X119939Y119933D01*
X119855Y120010D01*
X119774Y120089D01*
X119978Y124795D02*
X119980Y124873D01*
X119985Y124951D01*
X119995Y125028D01*
X120008Y125105D01*
X120024Y125181D01*
X120044Y125256D01*
X120068Y125330D01*
X120095Y125403D01*
X120126Y125475D01*
X120160Y125545D01*
X120197Y125614D01*
X120238Y125680D01*
X120282Y125745D01*
X120328Y125807D01*
X120378Y125867D01*
X120430Y125925D01*
X120485Y125980D01*
X120543Y126032D01*
X120603Y126082D01*
X120665Y126128D01*
X120730Y126172D01*
X120797Y126213D01*
X120865Y126250D01*
X120935Y126284D01*
X121007Y126315D01*
X121080Y126342D01*
X121154Y126366D01*
X121229Y126386D01*
X121305Y126402D01*
X121382Y126415D01*
X121459Y126425D01*
X121537Y126430D01*
X121615Y126432D01*
X121725Y126430D01*
X121834Y126424D01*
X121944Y126414D01*
X122052Y126401D01*
X122161Y126383D01*
X122268Y126362D01*
X122375Y126336D01*
X122481Y126307D01*
X122586Y126275D01*
X122689Y126238D01*
X122791Y126198D01*
X122892Y126154D01*
X122991Y126106D01*
X123088Y126056D01*
X123183Y126001D01*
X123276Y125943D01*
X123367Y125882D01*
X123456Y125818D01*
X120796Y123362D02*
X120729Y123404D01*
X120664Y123448D01*
X120602Y123496D01*
X120542Y123546D01*
X120484Y123599D01*
X120429Y123655D01*
X120377Y123714D01*
X120327Y123774D01*
X120280Y123838D01*
X120237Y123903D01*
X120196Y123970D01*
X120159Y124039D01*
X120125Y124110D01*
X120094Y124182D01*
X120067Y124256D01*
X120043Y124330D01*
X120023Y124406D01*
X120007Y124483D01*
X119994Y124560D01*
X119984Y124638D01*
X119979Y124717D01*
X119977Y124795D01*
X123047Y122135D02*
X123113Y122093D01*
X123178Y122049D01*
X123240Y122002D01*
X123300Y121951D01*
X123358Y121898D01*
X123413Y121842D01*
X123466Y121784D01*
X123515Y121723D01*
X123562Y121660D01*
X123605Y121595D01*
X123646Y121528D01*
X123683Y121459D01*
X123717Y121388D01*
X123748Y121316D01*
X123775Y121242D01*
X123799Y121167D01*
X123819Y121092D01*
X123835Y121015D01*
X123848Y120938D01*
X123858Y120860D01*
X123863Y120781D01*
X123865Y120703D01*
X123047Y122135D02*
X120796Y123363D01*
D13*
X66000Y141500D02*
X66000Y180500D01*
X66000Y141500D02*
X76000Y131500D01*
X146000Y131500D01*
X156000Y141500D01*
X156000Y180500D01*
D11*
X27272Y140131D02*
X27272Y136236D01*
X27271Y140131D02*
X27269Y140230D01*
X27263Y140330D01*
X27254Y140429D01*
X27241Y140527D01*
X27224Y140625D01*
X27203Y140723D01*
X27178Y140819D01*
X27150Y140914D01*
X27118Y141008D01*
X27083Y141101D01*
X27044Y141193D01*
X27001Y141283D01*
X26956Y141371D01*
X26906Y141458D01*
X26854Y141542D01*
X26798Y141625D01*
X26740Y141705D01*
X26678Y141783D01*
X26613Y141858D01*
X26545Y141931D01*
X26475Y142001D01*
X26402Y142069D01*
X26327Y142134D01*
X26249Y142196D01*
X26169Y142254D01*
X26086Y142310D01*
X26002Y142362D01*
X25915Y142412D01*
X25827Y142457D01*
X25737Y142500D01*
X25645Y142539D01*
X25552Y142574D01*
X25458Y142606D01*
X25363Y142634D01*
X25267Y142659D01*
X25169Y142680D01*
X25071Y142697D01*
X24973Y142710D01*
X24874Y142719D01*
X24774Y142725D01*
X24675Y142727D01*
X23377Y142727D01*
X23278Y142725D01*
X23178Y142719D01*
X23079Y142710D01*
X22981Y142697D01*
X22883Y142680D01*
X22785Y142659D01*
X22689Y142634D01*
X22594Y142606D01*
X22500Y142574D01*
X22407Y142539D01*
X22315Y142500D01*
X22225Y142457D01*
X22137Y142412D01*
X22050Y142362D01*
X21966Y142310D01*
X21883Y142254D01*
X21803Y142196D01*
X21725Y142134D01*
X21650Y142069D01*
X21577Y142001D01*
X21507Y141931D01*
X21439Y141858D01*
X21374Y141783D01*
X21312Y141705D01*
X21254Y141625D01*
X21198Y141542D01*
X21146Y141458D01*
X21096Y141371D01*
X21051Y141283D01*
X21008Y141193D01*
X20969Y141101D01*
X20934Y141008D01*
X20902Y140914D01*
X20874Y140819D01*
X20849Y140723D01*
X20828Y140625D01*
X20811Y140527D01*
X20798Y140429D01*
X20789Y140330D01*
X20783Y140230D01*
X20781Y140131D01*
X20781Y136236D01*
X15588Y136236D01*
X15588Y142727D01*
X15588Y147017D02*
X27272Y150912D01*
X15588Y154806D01*
D12*
X148909Y54772D02*
X150546Y54772D01*
X148909Y54772D02*
X148831Y54774D01*
X148753Y54779D01*
X148676Y54789D01*
X148599Y54802D01*
X148523Y54818D01*
X148448Y54838D01*
X148374Y54862D01*
X148301Y54889D01*
X148229Y54920D01*
X148159Y54954D01*
X148091Y54991D01*
X148024Y55032D01*
X147959Y55076D01*
X147897Y55122D01*
X147837Y55172D01*
X147779Y55224D01*
X147724Y55279D01*
X147672Y55337D01*
X147622Y55397D01*
X147576Y55459D01*
X147532Y55524D01*
X147491Y55591D01*
X147454Y55659D01*
X147420Y55729D01*
X147389Y55801D01*
X147362Y55874D01*
X147338Y55948D01*
X147318Y56023D01*
X147302Y56099D01*
X147289Y56176D01*
X147279Y56253D01*
X147274Y56331D01*
X147272Y56409D01*
X147273Y56409D02*
X147273Y60501D01*
X147272Y60501D02*
X147274Y60581D01*
X147280Y60661D01*
X147290Y60741D01*
X147303Y60820D01*
X147321Y60899D01*
X147342Y60976D01*
X147368Y61052D01*
X147397Y61127D01*
X147429Y61201D01*
X147465Y61273D01*
X147505Y61343D01*
X147548Y61410D01*
X147594Y61476D01*
X147644Y61539D01*
X147696Y61600D01*
X147751Y61659D01*
X147810Y61714D01*
X147870Y61766D01*
X147934Y61816D01*
X148000Y61862D01*
X148067Y61905D01*
X148137Y61945D01*
X148209Y61981D01*
X148283Y62013D01*
X148357Y62042D01*
X148434Y62068D01*
X148511Y62089D01*
X148590Y62107D01*
X148669Y62120D01*
X148749Y62130D01*
X148829Y62136D01*
X148909Y62138D01*
X150546Y62138D01*
X155642Y62139D02*
X155727Y62137D01*
X155812Y62131D01*
X155896Y62121D01*
X155980Y62108D01*
X156064Y62090D01*
X156146Y62069D01*
X156227Y62044D01*
X156307Y62015D01*
X156386Y61982D01*
X156463Y61946D01*
X156538Y61906D01*
X156612Y61863D01*
X156683Y61817D01*
X156752Y61767D01*
X156819Y61714D01*
X156883Y61658D01*
X156944Y61599D01*
X157003Y61538D01*
X157059Y61474D01*
X157112Y61407D01*
X157162Y61338D01*
X157208Y61267D01*
X157251Y61193D01*
X157291Y61118D01*
X157327Y61041D01*
X157360Y60962D01*
X157389Y60882D01*
X157414Y60801D01*
X157435Y60719D01*
X157453Y60635D01*
X157466Y60551D01*
X157476Y60467D01*
X157482Y60382D01*
X157484Y60297D01*
X155642Y62138D02*
X155546Y62136D01*
X155450Y62130D01*
X155355Y62120D01*
X155260Y62107D01*
X155165Y62089D01*
X155072Y62068D01*
X154979Y62043D01*
X154888Y62014D01*
X154797Y61982D01*
X154708Y61946D01*
X154621Y61906D01*
X154535Y61863D01*
X154451Y61817D01*
X154369Y61767D01*
X154289Y61713D01*
X154212Y61657D01*
X154137Y61597D01*
X154064Y61535D01*
X153994Y61469D01*
X153926Y61401D01*
X153861Y61330D01*
X153800Y61257D01*
X153741Y61181D01*
X153685Y61102D01*
X153633Y61022D01*
X153584Y60939D01*
X153538Y60855D01*
X153496Y60769D01*
X153458Y60681D01*
X153423Y60592D01*
X153391Y60501D01*
X156870Y58865D02*
X156930Y58924D01*
X156987Y58986D01*
X157042Y59050D01*
X157093Y59117D01*
X157142Y59186D01*
X157188Y59256D01*
X157231Y59329D01*
X157271Y59403D01*
X157307Y59479D01*
X157340Y59557D01*
X157370Y59636D01*
X157397Y59716D01*
X157420Y59797D01*
X157439Y59879D01*
X157455Y59961D01*
X157468Y60045D01*
X157477Y60129D01*
X157482Y60213D01*
X157484Y60297D01*
X156870Y58864D02*
X153392Y54772D01*
X157484Y54772D01*
X37284Y55373D02*
X35647Y55373D01*
X35569Y55375D01*
X35491Y55380D01*
X35414Y55390D01*
X35337Y55403D01*
X35261Y55419D01*
X35186Y55439D01*
X35112Y55463D01*
X35039Y55490D01*
X34967Y55521D01*
X34897Y55555D01*
X34829Y55592D01*
X34762Y55633D01*
X34697Y55677D01*
X34635Y55723D01*
X34575Y55773D01*
X34517Y55825D01*
X34462Y55880D01*
X34410Y55938D01*
X34360Y55998D01*
X34314Y56060D01*
X34270Y56125D01*
X34229Y56192D01*
X34192Y56260D01*
X34158Y56330D01*
X34127Y56402D01*
X34100Y56475D01*
X34076Y56549D01*
X34056Y56624D01*
X34040Y56700D01*
X34027Y56777D01*
X34017Y56854D01*
X34012Y56932D01*
X34010Y57010D01*
X34010Y61102D01*
X34012Y61182D01*
X34018Y61262D01*
X34028Y61342D01*
X34041Y61421D01*
X34059Y61500D01*
X34080Y61577D01*
X34106Y61653D01*
X34135Y61728D01*
X34167Y61802D01*
X34203Y61874D01*
X34243Y61944D01*
X34286Y62011D01*
X34332Y62077D01*
X34382Y62140D01*
X34434Y62201D01*
X34489Y62260D01*
X34548Y62315D01*
X34608Y62367D01*
X34672Y62417D01*
X34738Y62463D01*
X34805Y62506D01*
X34875Y62546D01*
X34947Y62582D01*
X35021Y62614D01*
X35095Y62643D01*
X35172Y62669D01*
X35249Y62690D01*
X35328Y62708D01*
X35407Y62721D01*
X35487Y62731D01*
X35567Y62737D01*
X35647Y62739D01*
X37284Y62739D01*
X40129Y61102D02*
X42176Y62739D01*
X42176Y55373D01*
X44222Y55373D02*
X40129Y55373D01*
D11*
X105232Y136504D02*
X116916Y136504D01*
X105232Y136504D02*
X105232Y139750D01*
X105231Y139750D02*
X105233Y139863D01*
X105239Y139976D01*
X105249Y140089D01*
X105263Y140202D01*
X105280Y140314D01*
X105302Y140425D01*
X105327Y140535D01*
X105357Y140645D01*
X105390Y140753D01*
X105427Y140860D01*
X105467Y140966D01*
X105512Y141070D01*
X105560Y141173D01*
X105611Y141274D01*
X105666Y141373D01*
X105724Y141470D01*
X105786Y141565D01*
X105851Y141658D01*
X105919Y141748D01*
X105990Y141836D01*
X106065Y141922D01*
X106142Y142005D01*
X106222Y142085D01*
X106305Y142162D01*
X106391Y142237D01*
X106479Y142308D01*
X106569Y142376D01*
X106662Y142441D01*
X106757Y142503D01*
X106854Y142561D01*
X106953Y142616D01*
X107054Y142667D01*
X107157Y142715D01*
X107261Y142760D01*
X107367Y142800D01*
X107474Y142837D01*
X107582Y142870D01*
X107692Y142900D01*
X107802Y142925D01*
X107913Y142947D01*
X108025Y142964D01*
X108138Y142978D01*
X108251Y142988D01*
X108364Y142994D01*
X108477Y142996D01*
X108477Y142995D02*
X113670Y142995D01*
X113670Y142996D02*
X113783Y142994D01*
X113896Y142988D01*
X114009Y142978D01*
X114122Y142964D01*
X114234Y142947D01*
X114345Y142925D01*
X114455Y142900D01*
X114565Y142870D01*
X114673Y142837D01*
X114780Y142800D01*
X114886Y142760D01*
X114990Y142715D01*
X115093Y142667D01*
X115194Y142616D01*
X115293Y142561D01*
X115390Y142503D01*
X115485Y142441D01*
X115578Y142376D01*
X115668Y142308D01*
X115756Y142237D01*
X115842Y142162D01*
X115925Y142085D01*
X116005Y142005D01*
X116082Y141922D01*
X116157Y141836D01*
X116228Y141748D01*
X116296Y141658D01*
X116361Y141565D01*
X116423Y141470D01*
X116481Y141373D01*
X116536Y141274D01*
X116587Y141173D01*
X116635Y141070D01*
X116680Y140966D01*
X116720Y140860D01*
X116757Y140753D01*
X116790Y140645D01*
X116820Y140535D01*
X116845Y140425D01*
X116867Y140314D01*
X116884Y140202D01*
X116898Y140089D01*
X116908Y139976D01*
X116914Y139863D01*
X116916Y139750D01*
X116916Y136504D01*
X111074Y148315D02*
X110844Y148318D01*
X110614Y148326D01*
X110385Y148340D01*
X110156Y148359D01*
X109927Y148384D01*
X109699Y148414D01*
X109472Y148449D01*
X109246Y148490D01*
X109021Y148536D01*
X108797Y148588D01*
X108574Y148645D01*
X108353Y148707D01*
X108133Y148775D01*
X107915Y148848D01*
X107699Y148926D01*
X107485Y149009D01*
X107273Y149097D01*
X107062Y149190D01*
X106855Y149289D01*
X106765Y149322D01*
X106676Y149358D01*
X106588Y149398D01*
X106503Y149442D01*
X106419Y149489D01*
X106337Y149539D01*
X106257Y149593D01*
X106180Y149649D01*
X106104Y149709D01*
X106031Y149772D01*
X105961Y149837D01*
X105893Y149906D01*
X105829Y149977D01*
X105767Y150050D01*
X105708Y150126D01*
X105652Y150204D01*
X105599Y150285D01*
X105550Y150367D01*
X105504Y150451D01*
X105461Y150538D01*
X105422Y150625D01*
X105386Y150715D01*
X105354Y150805D01*
X105326Y150897D01*
X105301Y150990D01*
X105280Y151084D01*
X105263Y151178D01*
X105249Y151273D01*
X105240Y151369D01*
X105234Y151465D01*
X105232Y151561D01*
X105234Y151657D01*
X105240Y151753D01*
X105249Y151849D01*
X105263Y151944D01*
X105280Y152038D01*
X105301Y152132D01*
X105326Y152225D01*
X105354Y152317D01*
X105386Y152407D01*
X105422Y152497D01*
X105461Y152585D01*
X105504Y152671D01*
X105550Y152755D01*
X105599Y152837D01*
X105652Y152918D01*
X105708Y152996D01*
X105767Y153072D01*
X105829Y153145D01*
X105893Y153216D01*
X105961Y153285D01*
X106031Y153350D01*
X106104Y153413D01*
X106180Y153473D01*
X106257Y153529D01*
X106337Y153583D01*
X106419Y153633D01*
X106503Y153680D01*
X106588Y153724D01*
X106676Y153764D01*
X106765Y153800D01*
X106855Y153833D01*
X107062Y153932D01*
X107273Y154025D01*
X107485Y154113D01*
X107699Y154196D01*
X107915Y154274D01*
X108133Y154347D01*
X108353Y154415D01*
X108574Y154477D01*
X108797Y154534D01*
X109021Y154586D01*
X109246Y154632D01*
X109472Y154673D01*
X109699Y154708D01*
X109927Y154738D01*
X110156Y154763D01*
X110385Y154782D01*
X110614Y154796D01*
X110844Y154804D01*
X111074Y154807D01*
X111074Y148315D02*
X111304Y148318D01*
X111534Y148326D01*
X111763Y148340D01*
X111992Y148359D01*
X112221Y148384D01*
X112449Y148414D01*
X112676Y148449D01*
X112902Y148490D01*
X113127Y148536D01*
X113351Y148588D01*
X113574Y148645D01*
X113795Y148707D01*
X114015Y148775D01*
X114233Y148848D01*
X114449Y148926D01*
X114663Y149009D01*
X114875Y149097D01*
X115086Y149190D01*
X115293Y149289D01*
X115383Y149322D01*
X115472Y149358D01*
X115560Y149399D01*
X115645Y149442D01*
X115729Y149489D01*
X115811Y149539D01*
X115891Y149593D01*
X115968Y149649D01*
X116044Y149709D01*
X116117Y149772D01*
X116187Y149837D01*
X116255Y149906D01*
X116319Y149977D01*
X116381Y150050D01*
X116440Y150126D01*
X116496Y150204D01*
X116549Y150285D01*
X116598Y150367D01*
X116644Y150451D01*
X116687Y150538D01*
X116726Y150625D01*
X116762Y150715D01*
X116794Y150805D01*
X116822Y150897D01*
X116847Y150990D01*
X116868Y151084D01*
X116885Y151178D01*
X116899Y151273D01*
X116908Y151369D01*
X116914Y151465D01*
X116916Y151561D01*
X115293Y153833D02*
X115086Y153932D01*
X114875Y154025D01*
X114663Y154113D01*
X114449Y154196D01*
X114233Y154274D01*
X114015Y154347D01*
X113795Y154415D01*
X113574Y154477D01*
X113351Y154534D01*
X113127Y154586D01*
X112902Y154632D01*
X112676Y154673D01*
X112449Y154708D01*
X112221Y154738D01*
X111992Y154763D01*
X111763Y154782D01*
X111534Y154796D01*
X111304Y154804D01*
X111074Y154807D01*
X115293Y153833D02*
X115383Y153800D01*
X115472Y153764D01*
X115560Y153724D01*
X115645Y153680D01*
X115729Y153633D01*
X115811Y153583D01*
X115891Y153529D01*
X115968Y153473D01*
X116044Y153413D01*
X116117Y153350D01*
X116187Y153285D01*
X116255Y153216D01*
X116319Y153145D01*
X116381Y153072D01*
X116440Y152996D01*
X116496Y152918D01*
X116549Y152837D01*
X116598Y152755D01*
X116644Y152671D01*
X116687Y152584D01*
X116726Y152497D01*
X116762Y152407D01*
X116794Y152317D01*
X116822Y152225D01*
X116847Y152132D01*
X116868Y152038D01*
X116885Y151944D01*
X116899Y151849D01*
X116908Y151753D01*
X116914Y151657D01*
X116916Y151561D01*
X114319Y148964D02*
X107828Y154157D01*
X50190Y130422D02*
X50190Y128475D01*
X50190Y130422D02*
X56682Y130422D01*
X56682Y126528D01*
X56681Y126528D02*
X56679Y126429D01*
X56673Y126329D01*
X56664Y126230D01*
X56651Y126132D01*
X56634Y126034D01*
X56613Y125936D01*
X56588Y125840D01*
X56560Y125745D01*
X56528Y125651D01*
X56493Y125558D01*
X56454Y125466D01*
X56411Y125376D01*
X56366Y125288D01*
X56316Y125201D01*
X56264Y125117D01*
X56208Y125034D01*
X56150Y124954D01*
X56088Y124876D01*
X56023Y124801D01*
X55955Y124728D01*
X55885Y124658D01*
X55812Y124590D01*
X55737Y124525D01*
X55659Y124463D01*
X55579Y124405D01*
X55496Y124349D01*
X55412Y124297D01*
X55325Y124247D01*
X55237Y124202D01*
X55147Y124159D01*
X55055Y124120D01*
X54962Y124085D01*
X54868Y124053D01*
X54773Y124025D01*
X54677Y124000D01*
X54579Y123979D01*
X54481Y123962D01*
X54383Y123949D01*
X54284Y123940D01*
X54184Y123934D01*
X54085Y123932D01*
X54085Y123931D02*
X47594Y123931D01*
X47495Y123933D01*
X47395Y123939D01*
X47296Y123948D01*
X47198Y123961D01*
X47100Y123979D01*
X47002Y123999D01*
X46906Y124024D01*
X46810Y124052D01*
X46716Y124084D01*
X46623Y124119D01*
X46532Y124158D01*
X46442Y124201D01*
X46353Y124246D01*
X46267Y124296D01*
X46182Y124348D01*
X46100Y124404D01*
X46020Y124463D01*
X45942Y124524D01*
X45866Y124589D01*
X45793Y124657D01*
X45723Y124727D01*
X45655Y124800D01*
X45590Y124876D01*
X45529Y124954D01*
X45470Y125034D01*
X45414Y125116D01*
X45362Y125201D01*
X45313Y125287D01*
X45267Y125376D01*
X45224Y125466D01*
X45185Y125557D01*
X45150Y125650D01*
X45118Y125744D01*
X45090Y125840D01*
X45065Y125936D01*
X45045Y126034D01*
X45027Y126132D01*
X45014Y126230D01*
X45005Y126329D01*
X44999Y126428D01*
X44997Y126528D01*
X44998Y126528D02*
X44998Y130422D01*
X44998Y136123D02*
X56682Y136123D01*
X56682Y142614D02*
X44998Y136123D01*
X44998Y142614D02*
X56682Y142614D01*
X56682Y148315D02*
X44998Y148315D01*
X44998Y151561D01*
X44997Y151561D02*
X44999Y151674D01*
X45005Y151787D01*
X45015Y151900D01*
X45029Y152013D01*
X45046Y152125D01*
X45068Y152236D01*
X45093Y152346D01*
X45123Y152456D01*
X45156Y152564D01*
X45193Y152671D01*
X45233Y152777D01*
X45278Y152881D01*
X45326Y152984D01*
X45377Y153085D01*
X45432Y153184D01*
X45490Y153281D01*
X45552Y153376D01*
X45617Y153469D01*
X45685Y153559D01*
X45756Y153647D01*
X45831Y153733D01*
X45908Y153816D01*
X45988Y153896D01*
X46071Y153973D01*
X46157Y154048D01*
X46245Y154119D01*
X46335Y154187D01*
X46428Y154252D01*
X46523Y154314D01*
X46620Y154372D01*
X46719Y154427D01*
X46820Y154478D01*
X46923Y154526D01*
X47027Y154571D01*
X47133Y154611D01*
X47240Y154648D01*
X47348Y154681D01*
X47458Y154711D01*
X47568Y154736D01*
X47679Y154758D01*
X47791Y154775D01*
X47904Y154789D01*
X48017Y154799D01*
X48130Y154805D01*
X48243Y154807D01*
X48243Y154806D02*
X53436Y154806D01*
X53436Y154807D02*
X53549Y154805D01*
X53662Y154799D01*
X53775Y154789D01*
X53888Y154775D01*
X54000Y154758D01*
X54111Y154736D01*
X54221Y154711D01*
X54331Y154681D01*
X54439Y154648D01*
X54546Y154611D01*
X54652Y154571D01*
X54756Y154526D01*
X54859Y154478D01*
X54960Y154427D01*
X55059Y154372D01*
X55156Y154314D01*
X55251Y154252D01*
X55344Y154187D01*
X55434Y154119D01*
X55522Y154048D01*
X55608Y153973D01*
X55691Y153896D01*
X55771Y153816D01*
X55848Y153733D01*
X55923Y153647D01*
X55994Y153559D01*
X56062Y153469D01*
X56127Y153376D01*
X56189Y153281D01*
X56247Y153184D01*
X56302Y153085D01*
X56353Y152984D01*
X56401Y152881D01*
X56446Y152777D01*
X56486Y152671D01*
X56523Y152564D01*
X56556Y152456D01*
X56586Y152346D01*
X56611Y152236D01*
X56633Y152125D01*
X56650Y152013D01*
X56664Y151900D01*
X56674Y151787D01*
X56680Y151674D01*
X56682Y151561D01*
X56682Y148315D01*
D13*
X110701Y73486D02*
X110701Y65986D01*
X80701Y65986D01*
X80701Y73486D01*
X110701Y73486D01*
X110701Y76986D02*
X110701Y88486D01*
D12*
X90675Y94895D02*
X90675Y100215D01*
X90675Y94895D02*
X90677Y94806D01*
X90683Y94717D01*
X90693Y94628D01*
X90706Y94540D01*
X90723Y94452D01*
X90745Y94365D01*
X90770Y94280D01*
X90798Y94195D01*
X90831Y94112D01*
X90867Y94030D01*
X90906Y93950D01*
X90949Y93872D01*
X90995Y93796D01*
X91045Y93721D01*
X91098Y93649D01*
X91154Y93580D01*
X91213Y93513D01*
X91274Y93448D01*
X91339Y93387D01*
X91406Y93328D01*
X91475Y93272D01*
X91547Y93219D01*
X91622Y93169D01*
X91698Y93123D01*
X91776Y93080D01*
X91856Y93041D01*
X91938Y93005D01*
X92021Y92972D01*
X92106Y92944D01*
X92191Y92919D01*
X92278Y92897D01*
X92366Y92880D01*
X92454Y92867D01*
X92543Y92857D01*
X92632Y92851D01*
X92721Y92849D01*
X92810Y92851D01*
X92899Y92857D01*
X92988Y92867D01*
X93076Y92880D01*
X93164Y92897D01*
X93251Y92919D01*
X93336Y92944D01*
X93421Y92972D01*
X93504Y93005D01*
X93586Y93041D01*
X93666Y93080D01*
X93744Y93123D01*
X93820Y93169D01*
X93895Y93219D01*
X93967Y93272D01*
X94036Y93328D01*
X94103Y93387D01*
X94168Y93448D01*
X94229Y93513D01*
X94288Y93580D01*
X94344Y93649D01*
X94397Y93721D01*
X94447Y93796D01*
X94493Y93872D01*
X94536Y93950D01*
X94575Y94030D01*
X94611Y94112D01*
X94644Y94195D01*
X94672Y94280D01*
X94697Y94365D01*
X94719Y94452D01*
X94736Y94540D01*
X94749Y94628D01*
X94759Y94717D01*
X94765Y94806D01*
X94767Y94895D01*
X94767Y100215D01*
X98234Y98578D02*
X100280Y100215D01*
X100280Y92849D01*
X98234Y92849D02*
X102326Y92849D01*
D11*
X165487Y140244D02*
X177171Y140244D01*
X165487Y136998D02*
X165487Y143489D01*
X165487Y154806D02*
X177171Y147017D01*
X177171Y154806D02*
X165487Y147017D01*
D10*
X33970Y84794D02*
X16030Y84794D01*
X33970Y101114D02*
X34070Y101112D01*
X34169Y101106D01*
X34269Y101096D01*
X34367Y101083D01*
X34466Y101065D01*
X34563Y101044D01*
X34659Y101019D01*
X34755Y100990D01*
X34849Y100957D01*
X34942Y100921D01*
X35033Y100881D01*
X35123Y100837D01*
X35211Y100790D01*
X35297Y100740D01*
X35381Y100686D01*
X35463Y100629D01*
X35542Y100569D01*
X35620Y100505D01*
X35694Y100439D01*
X35766Y100370D01*
X35835Y100298D01*
X35901Y100224D01*
X35965Y100146D01*
X36025Y100067D01*
X36082Y99985D01*
X36136Y99901D01*
X36186Y99815D01*
X36233Y99727D01*
X36277Y99637D01*
X36317Y99546D01*
X36353Y99453D01*
X36386Y99359D01*
X36415Y99263D01*
X36440Y99167D01*
X36461Y99070D01*
X36479Y98971D01*
X36492Y98873D01*
X36502Y98773D01*
X36508Y98674D01*
X36510Y98574D01*
X16030Y101114D02*
X15930Y101112D01*
X15831Y101106D01*
X15731Y101096D01*
X15633Y101083D01*
X15534Y101065D01*
X15437Y101044D01*
X15341Y101019D01*
X15245Y100990D01*
X15151Y100957D01*
X15058Y100921D01*
X14967Y100881D01*
X14877Y100837D01*
X14789Y100790D01*
X14703Y100740D01*
X14619Y100686D01*
X14537Y100629D01*
X14458Y100569D01*
X14380Y100505D01*
X14306Y100439D01*
X14234Y100370D01*
X14165Y100298D01*
X14099Y100224D01*
X14035Y100146D01*
X13975Y100067D01*
X13918Y99985D01*
X13864Y99901D01*
X13814Y99815D01*
X13767Y99727D01*
X13723Y99637D01*
X13683Y99546D01*
X13647Y99453D01*
X13614Y99359D01*
X13585Y99263D01*
X13560Y99167D01*
X13539Y99070D01*
X13521Y98971D01*
X13508Y98873D01*
X13498Y98773D01*
X13492Y98674D01*
X13490Y98574D01*
X13490Y87334D02*
X13492Y87234D01*
X13498Y87135D01*
X13508Y87035D01*
X13521Y86937D01*
X13539Y86838D01*
X13560Y86741D01*
X13585Y86645D01*
X13614Y86549D01*
X13647Y86455D01*
X13683Y86362D01*
X13723Y86271D01*
X13767Y86181D01*
X13814Y86093D01*
X13864Y86007D01*
X13918Y85923D01*
X13975Y85841D01*
X14035Y85762D01*
X14099Y85684D01*
X14165Y85610D01*
X14234Y85538D01*
X14306Y85469D01*
X14380Y85403D01*
X14458Y85339D01*
X14537Y85279D01*
X14619Y85222D01*
X14703Y85168D01*
X14789Y85118D01*
X14877Y85071D01*
X14967Y85027D01*
X15058Y84987D01*
X15151Y84951D01*
X15245Y84918D01*
X15341Y84889D01*
X15437Y84864D01*
X15534Y84843D01*
X15633Y84825D01*
X15731Y84812D01*
X15831Y84802D01*
X15930Y84796D01*
X16030Y84794D01*
X33970Y84794D02*
X34070Y84796D01*
X34169Y84802D01*
X34269Y84812D01*
X34367Y84825D01*
X34466Y84843D01*
X34563Y84864D01*
X34659Y84889D01*
X34755Y84918D01*
X34849Y84951D01*
X34942Y84987D01*
X35033Y85027D01*
X35123Y85071D01*
X35211Y85118D01*
X35297Y85168D01*
X35381Y85222D01*
X35463Y85279D01*
X35542Y85339D01*
X35620Y85403D01*
X35694Y85469D01*
X35766Y85538D01*
X35835Y85610D01*
X35901Y85684D01*
X35965Y85762D01*
X36025Y85841D01*
X36082Y85923D01*
X36136Y86007D01*
X36186Y86093D01*
X36233Y86181D01*
X36277Y86271D01*
X36317Y86362D01*
X36353Y86455D01*
X36386Y86549D01*
X36415Y86645D01*
X36440Y86741D01*
X36461Y86838D01*
X36479Y86937D01*
X36492Y87035D01*
X36502Y87135D01*
X36508Y87234D01*
X36510Y87334D01*
X36510Y98574D01*
X13490Y98574D02*
X13490Y87334D01*
X16030Y101114D02*
X33970Y101114D01*
D12*
X19119Y106873D02*
X19119Y112602D01*
X19119Y106873D02*
X19117Y106795D01*
X19112Y106717D01*
X19102Y106640D01*
X19089Y106563D01*
X19073Y106487D01*
X19053Y106412D01*
X19029Y106338D01*
X19002Y106265D01*
X18971Y106193D01*
X18937Y106123D01*
X18900Y106055D01*
X18859Y105988D01*
X18815Y105923D01*
X18769Y105861D01*
X18719Y105801D01*
X18667Y105743D01*
X18612Y105688D01*
X18554Y105636D01*
X18494Y105586D01*
X18432Y105540D01*
X18367Y105496D01*
X18301Y105455D01*
X18232Y105418D01*
X18162Y105384D01*
X18090Y105353D01*
X18017Y105326D01*
X17943Y105302D01*
X17868Y105282D01*
X17792Y105266D01*
X17715Y105253D01*
X17638Y105243D01*
X17560Y105238D01*
X17482Y105236D01*
X16664Y105236D01*
X22915Y105236D02*
X22915Y112602D01*
X24961Y112602D01*
X25050Y112600D01*
X25139Y112594D01*
X25228Y112584D01*
X25316Y112571D01*
X25404Y112554D01*
X25491Y112532D01*
X25576Y112507D01*
X25661Y112479D01*
X25744Y112446D01*
X25826Y112410D01*
X25906Y112371D01*
X25984Y112328D01*
X26060Y112282D01*
X26135Y112232D01*
X26207Y112179D01*
X26276Y112123D01*
X26343Y112064D01*
X26408Y112003D01*
X26469Y111938D01*
X26528Y111871D01*
X26584Y111802D01*
X26637Y111730D01*
X26687Y111655D01*
X26733Y111579D01*
X26776Y111501D01*
X26815Y111421D01*
X26851Y111339D01*
X26884Y111256D01*
X26912Y111171D01*
X26937Y111086D01*
X26959Y110999D01*
X26976Y110911D01*
X26989Y110823D01*
X26999Y110734D01*
X27005Y110645D01*
X27007Y110556D01*
X27005Y110467D01*
X26999Y110378D01*
X26989Y110289D01*
X26976Y110201D01*
X26959Y110113D01*
X26937Y110026D01*
X26912Y109941D01*
X26884Y109856D01*
X26851Y109773D01*
X26815Y109691D01*
X26776Y109611D01*
X26733Y109533D01*
X26687Y109457D01*
X26637Y109382D01*
X26584Y109310D01*
X26528Y109241D01*
X26469Y109174D01*
X26408Y109109D01*
X26343Y109048D01*
X26276Y108989D01*
X26207Y108933D01*
X26135Y108880D01*
X26060Y108830D01*
X25984Y108784D01*
X25906Y108741D01*
X25826Y108702D01*
X25744Y108666D01*
X25661Y108633D01*
X25576Y108605D01*
X25491Y108580D01*
X25404Y108558D01*
X25316Y108541D01*
X25228Y108528D01*
X25139Y108518D01*
X25050Y108512D01*
X24961Y108510D01*
X22915Y108510D01*
X29869Y110965D02*
X31915Y112602D01*
X31915Y105236D01*
X29869Y105236D02*
X33961Y105236D01*
D10*
X157718Y84794D02*
X175658Y84794D01*
X178198Y98574D02*
X178196Y98674D01*
X178190Y98773D01*
X178180Y98873D01*
X178167Y98971D01*
X178149Y99070D01*
X178128Y99167D01*
X178103Y99263D01*
X178074Y99359D01*
X178041Y99453D01*
X178005Y99546D01*
X177965Y99637D01*
X177921Y99727D01*
X177874Y99815D01*
X177824Y99901D01*
X177770Y99985D01*
X177713Y100067D01*
X177653Y100146D01*
X177589Y100224D01*
X177523Y100298D01*
X177454Y100370D01*
X177382Y100439D01*
X177308Y100505D01*
X177230Y100569D01*
X177151Y100629D01*
X177069Y100686D01*
X176985Y100740D01*
X176899Y100790D01*
X176811Y100837D01*
X176721Y100881D01*
X176630Y100921D01*
X176537Y100957D01*
X176443Y100990D01*
X176347Y101019D01*
X176251Y101044D01*
X176154Y101065D01*
X176055Y101083D01*
X175957Y101096D01*
X175857Y101106D01*
X175758Y101112D01*
X175658Y101114D01*
X157718Y101114D02*
X157618Y101112D01*
X157519Y101106D01*
X157419Y101096D01*
X157321Y101083D01*
X157222Y101065D01*
X157125Y101044D01*
X157029Y101019D01*
X156933Y100990D01*
X156839Y100957D01*
X156746Y100921D01*
X156655Y100881D01*
X156565Y100837D01*
X156477Y100790D01*
X156391Y100740D01*
X156307Y100686D01*
X156225Y100629D01*
X156146Y100569D01*
X156068Y100505D01*
X155994Y100439D01*
X155922Y100370D01*
X155853Y100298D01*
X155787Y100224D01*
X155723Y100146D01*
X155663Y100067D01*
X155606Y99985D01*
X155552Y99901D01*
X155502Y99815D01*
X155455Y99727D01*
X155411Y99637D01*
X155371Y99546D01*
X155335Y99453D01*
X155302Y99359D01*
X155273Y99263D01*
X155248Y99167D01*
X155227Y99070D01*
X155209Y98971D01*
X155196Y98873D01*
X155186Y98773D01*
X155180Y98674D01*
X155178Y98574D01*
X155178Y87334D02*
X155180Y87234D01*
X155186Y87135D01*
X155196Y87035D01*
X155209Y86937D01*
X155227Y86838D01*
X155248Y86741D01*
X155273Y86645D01*
X155302Y86549D01*
X155335Y86455D01*
X155371Y86362D01*
X155411Y86271D01*
X155455Y86181D01*
X155502Y86093D01*
X155552Y86007D01*
X155606Y85923D01*
X155663Y85841D01*
X155723Y85762D01*
X155787Y85684D01*
X155853Y85610D01*
X155922Y85538D01*
X155994Y85469D01*
X156068Y85403D01*
X156146Y85339D01*
X156225Y85279D01*
X156307Y85222D01*
X156391Y85168D01*
X156477Y85118D01*
X156565Y85071D01*
X156655Y85027D01*
X156746Y84987D01*
X156839Y84951D01*
X156933Y84918D01*
X157029Y84889D01*
X157125Y84864D01*
X157222Y84843D01*
X157321Y84825D01*
X157419Y84812D01*
X157519Y84802D01*
X157618Y84796D01*
X157718Y84794D01*
X175658Y84794D02*
X175758Y84796D01*
X175857Y84802D01*
X175957Y84812D01*
X176055Y84825D01*
X176154Y84843D01*
X176251Y84864D01*
X176347Y84889D01*
X176443Y84918D01*
X176537Y84951D01*
X176630Y84987D01*
X176721Y85027D01*
X176811Y85071D01*
X176899Y85118D01*
X176985Y85168D01*
X177069Y85222D01*
X177151Y85279D01*
X177230Y85339D01*
X177308Y85403D01*
X177382Y85469D01*
X177454Y85538D01*
X177523Y85610D01*
X177589Y85684D01*
X177653Y85762D01*
X177713Y85841D01*
X177770Y85923D01*
X177824Y86007D01*
X177874Y86093D01*
X177921Y86181D01*
X177965Y86271D01*
X178005Y86362D01*
X178041Y86455D01*
X178074Y86549D01*
X178103Y86645D01*
X178128Y86741D01*
X178149Y86838D01*
X178167Y86937D01*
X178180Y87035D01*
X178190Y87135D01*
X178196Y87234D01*
X178198Y87334D01*
X178198Y98574D01*
X155178Y98574D02*
X155178Y87334D01*
X157718Y101114D02*
X175658Y101114D01*
D12*
X160718Y106873D02*
X160718Y112602D01*
X160718Y106873D02*
X160716Y106795D01*
X160711Y106717D01*
X160701Y106640D01*
X160688Y106563D01*
X160672Y106487D01*
X160652Y106412D01*
X160628Y106338D01*
X160601Y106265D01*
X160570Y106193D01*
X160536Y106123D01*
X160499Y106055D01*
X160458Y105988D01*
X160414Y105923D01*
X160368Y105861D01*
X160318Y105801D01*
X160266Y105743D01*
X160211Y105688D01*
X160153Y105636D01*
X160093Y105586D01*
X160031Y105540D01*
X159966Y105496D01*
X159900Y105455D01*
X159831Y105418D01*
X159761Y105384D01*
X159689Y105353D01*
X159616Y105326D01*
X159542Y105302D01*
X159467Y105282D01*
X159391Y105266D01*
X159314Y105253D01*
X159237Y105243D01*
X159159Y105238D01*
X159081Y105236D01*
X158262Y105236D01*
X164514Y105236D02*
X164514Y112602D01*
X166560Y112602D01*
X166649Y112600D01*
X166738Y112594D01*
X166827Y112584D01*
X166915Y112571D01*
X167003Y112554D01*
X167090Y112532D01*
X167175Y112507D01*
X167260Y112479D01*
X167343Y112446D01*
X167425Y112410D01*
X167505Y112371D01*
X167583Y112328D01*
X167659Y112282D01*
X167734Y112232D01*
X167806Y112179D01*
X167875Y112123D01*
X167942Y112064D01*
X168007Y112003D01*
X168068Y111938D01*
X168127Y111871D01*
X168183Y111802D01*
X168236Y111730D01*
X168286Y111655D01*
X168332Y111579D01*
X168375Y111501D01*
X168414Y111421D01*
X168450Y111339D01*
X168483Y111256D01*
X168511Y111171D01*
X168536Y111086D01*
X168558Y110999D01*
X168575Y110911D01*
X168588Y110823D01*
X168598Y110734D01*
X168604Y110645D01*
X168606Y110556D01*
X168604Y110467D01*
X168598Y110378D01*
X168588Y110289D01*
X168575Y110201D01*
X168558Y110113D01*
X168536Y110026D01*
X168511Y109941D01*
X168483Y109856D01*
X168450Y109773D01*
X168414Y109691D01*
X168375Y109611D01*
X168332Y109533D01*
X168286Y109457D01*
X168236Y109382D01*
X168183Y109310D01*
X168127Y109241D01*
X168068Y109174D01*
X168007Y109109D01*
X167942Y109048D01*
X167875Y108989D01*
X167806Y108933D01*
X167734Y108880D01*
X167659Y108830D01*
X167583Y108784D01*
X167505Y108741D01*
X167425Y108702D01*
X167343Y108666D01*
X167260Y108633D01*
X167175Y108605D01*
X167090Y108580D01*
X167003Y108558D01*
X166915Y108541D01*
X166827Y108528D01*
X166738Y108518D01*
X166649Y108512D01*
X166560Y108510D01*
X164514Y108510D01*
X173718Y112603D02*
X173803Y112601D01*
X173888Y112595D01*
X173972Y112585D01*
X174056Y112572D01*
X174140Y112554D01*
X174222Y112533D01*
X174303Y112508D01*
X174383Y112479D01*
X174462Y112446D01*
X174539Y112410D01*
X174614Y112370D01*
X174688Y112327D01*
X174759Y112281D01*
X174828Y112231D01*
X174895Y112178D01*
X174959Y112122D01*
X175020Y112063D01*
X175079Y112002D01*
X175135Y111938D01*
X175188Y111871D01*
X175238Y111802D01*
X175284Y111731D01*
X175327Y111657D01*
X175367Y111582D01*
X175403Y111505D01*
X175436Y111426D01*
X175465Y111346D01*
X175490Y111265D01*
X175511Y111183D01*
X175529Y111099D01*
X175542Y111015D01*
X175552Y110931D01*
X175558Y110846D01*
X175560Y110761D01*
X173718Y112603D02*
X173622Y112601D01*
X173526Y112595D01*
X173431Y112585D01*
X173336Y112572D01*
X173241Y112554D01*
X173148Y112533D01*
X173055Y112508D01*
X172964Y112479D01*
X172873Y112447D01*
X172784Y112411D01*
X172697Y112371D01*
X172611Y112328D01*
X172527Y112282D01*
X172445Y112232D01*
X172365Y112178D01*
X172288Y112122D01*
X172213Y112062D01*
X172140Y112000D01*
X172070Y111934D01*
X172002Y111866D01*
X171937Y111795D01*
X171876Y111722D01*
X171817Y111646D01*
X171761Y111567D01*
X171709Y111487D01*
X171660Y111404D01*
X171614Y111320D01*
X171572Y111234D01*
X171534Y111146D01*
X171499Y111057D01*
X171467Y110966D01*
X174946Y109329D02*
X175006Y109388D01*
X175063Y109450D01*
X175118Y109514D01*
X175169Y109581D01*
X175218Y109650D01*
X175264Y109720D01*
X175307Y109793D01*
X175347Y109867D01*
X175383Y109943D01*
X175416Y110021D01*
X175446Y110100D01*
X175473Y110180D01*
X175496Y110261D01*
X175515Y110343D01*
X175531Y110425D01*
X175544Y110509D01*
X175553Y110593D01*
X175558Y110677D01*
X175560Y110761D01*
X174946Y109329D02*
X171467Y105236D01*
X175559Y105236D01*
M02*
