G04 EAGLE Gerber RS-274X export*
G75*
%MOMM*%
%FSLAX34Y34*%
%LPD*%
%INBoard Outline*%
%IPPOS*%
%AMOC8*
5,1,8,0,0,1.08239X$1,22.5*%
G01*
%ADD10C,0.000000*%
%ADD11C,0.254000*%


D10*
X175Y170759D02*
X10Y10000D01*
X13Y9759D01*
X21Y9517D01*
X36Y9276D01*
X56Y9035D01*
X82Y8795D01*
X114Y8555D01*
X151Y8316D01*
X195Y8079D01*
X244Y7842D01*
X298Y7607D01*
X359Y7373D01*
X425Y7140D01*
X497Y6909D01*
X574Y6681D01*
X657Y6453D01*
X745Y6228D01*
X839Y6006D01*
X938Y5785D01*
X1042Y5567D01*
X1151Y5352D01*
X1266Y5139D01*
X1386Y4929D01*
X1511Y4722D01*
X1641Y4518D01*
X1775Y4318D01*
X1915Y4121D01*
X2059Y3927D01*
X2208Y3736D01*
X2361Y3550D01*
X2519Y3367D01*
X2681Y3188D01*
X2848Y3012D01*
X3019Y2841D01*
X3194Y2675D01*
X3372Y2512D01*
X3555Y2354D01*
X3741Y2200D01*
X3932Y2051D01*
X4125Y1906D01*
X4322Y1767D01*
X4523Y1631D01*
X4726Y1501D01*
X4933Y1376D01*
X5143Y1256D01*
X5355Y1141D01*
X5571Y1031D01*
X5788Y926D01*
X6009Y827D01*
X6231Y733D01*
X6456Y644D01*
X6683Y561D01*
X6912Y484D01*
X7143Y412D01*
X7375Y345D01*
X7609Y284D01*
X7844Y229D01*
X8081Y180D01*
X8318Y136D01*
X8557Y98D01*
X8796Y66D01*
X9037Y39D01*
X9277Y19D01*
X9519Y4D01*
X9760Y-5D01*
X10002Y-8D01*
X181002Y-150D01*
X181001Y-150D02*
X181243Y-147D01*
X181485Y-139D01*
X181726Y-124D01*
X181967Y-104D01*
X182207Y-78D01*
X182447Y-46D01*
X182686Y-8D01*
X182924Y36D01*
X183160Y85D01*
X183396Y140D01*
X183630Y200D01*
X183862Y266D01*
X184093Y338D01*
X184322Y416D01*
X184549Y499D01*
X184774Y587D01*
X184997Y681D01*
X185218Y780D01*
X185436Y884D01*
X185651Y994D01*
X185864Y1109D01*
X186074Y1229D01*
X186281Y1354D01*
X186485Y1484D01*
X186685Y1618D01*
X186883Y1758D01*
X187077Y1902D01*
X187267Y2052D01*
X187454Y2205D01*
X187637Y2363D01*
X187816Y2526D01*
X187991Y2692D01*
X188162Y2863D01*
X188329Y3038D01*
X188491Y3217D01*
X188650Y3400D01*
X188803Y3586D01*
X188952Y3777D01*
X189097Y3971D01*
X189237Y4168D01*
X189372Y4368D01*
X189502Y4572D01*
X189627Y4779D01*
X189747Y4989D01*
X189862Y5201D01*
X189972Y5417D01*
X190077Y5635D01*
X190176Y5855D01*
X190270Y6078D01*
X190359Y6303D01*
X190442Y6530D01*
X190519Y6759D01*
X190591Y6990D01*
X190658Y7222D01*
X190718Y7456D01*
X190773Y7692D01*
X190823Y7928D01*
X190867Y8166D01*
X190904Y8405D01*
X190937Y8644D01*
X190963Y8885D01*
X190983Y9126D01*
X190998Y9367D01*
X191007Y9609D01*
X191010Y9850D01*
X191010Y170785D01*
X191007Y171027D01*
X190998Y171268D01*
X190984Y171509D01*
X190963Y171750D01*
X190937Y171990D01*
X190905Y172230D01*
X190867Y172469D01*
X190824Y172706D01*
X190774Y172943D01*
X190719Y173178D01*
X190659Y173412D01*
X190592Y173645D01*
X190520Y173875D01*
X190443Y174104D01*
X190360Y174331D01*
X190272Y174556D01*
X190178Y174779D01*
X190079Y174999D01*
X189974Y175217D01*
X189864Y175433D01*
X189749Y175645D01*
X189629Y175855D01*
X189504Y176062D01*
X189374Y176266D01*
X189240Y176466D01*
X189100Y176663D01*
X188955Y176857D01*
X188806Y177047D01*
X188653Y177234D01*
X188495Y177417D01*
X188332Y177596D01*
X188166Y177771D01*
X187995Y177941D01*
X187820Y178108D01*
X187641Y178271D01*
X187458Y178429D01*
X187271Y178582D01*
X187081Y178731D01*
X186887Y178876D01*
X186690Y179015D01*
X186489Y179150D01*
X186286Y179280D01*
X186079Y179405D01*
X185869Y179525D01*
X185656Y179640D01*
X185441Y179750D01*
X185223Y179854D01*
X185003Y179953D01*
X184780Y180047D01*
X184555Y180136D01*
X184328Y180218D01*
X184099Y180296D01*
X183868Y180368D01*
X183636Y180434D01*
X183402Y180495D01*
X183167Y180550D01*
X182930Y180599D01*
X182692Y180642D01*
X182454Y180680D01*
X182214Y180712D01*
X181974Y180738D01*
X181733Y180759D01*
X181492Y180773D01*
X181250Y180782D01*
X181009Y180785D01*
X10174Y180760D01*
X10174Y180761D02*
X9932Y180759D01*
X9691Y180751D01*
X9449Y180737D01*
X9208Y180717D01*
X8968Y180691D01*
X8728Y180660D01*
X8489Y180622D01*
X8251Y180579D01*
X8014Y180531D01*
X7778Y180476D01*
X7544Y180416D01*
X7311Y180350D01*
X7080Y180278D01*
X6851Y180201D01*
X6624Y180118D01*
X6398Y180030D01*
X6175Y179937D01*
X5955Y179838D01*
X5737Y179733D01*
X5521Y179624D01*
X5308Y179509D01*
X5098Y179389D01*
X4891Y179264D01*
X4687Y179134D01*
X4486Y178999D01*
X4289Y178860D01*
X4095Y178715D01*
X3904Y178566D01*
X3717Y178412D01*
X3534Y178254D01*
X3355Y178092D01*
X3180Y177925D01*
X3009Y177754D01*
X2842Y177579D01*
X2680Y177400D01*
X2522Y177217D01*
X2368Y177030D01*
X2219Y176839D01*
X2075Y176645D01*
X1935Y176448D01*
X1800Y176247D01*
X1670Y176043D01*
X1546Y175836D01*
X1426Y175626D01*
X1311Y175413D01*
X1201Y175197D01*
X1097Y174979D01*
X998Y174758D01*
X905Y174535D01*
X817Y174310D01*
X734Y174083D01*
X657Y173853D01*
X585Y173622D01*
X520Y173390D01*
X459Y173155D01*
X405Y172920D01*
X356Y172683D01*
X313Y172445D01*
X276Y172206D01*
X244Y171966D01*
X219Y171725D01*
X199Y171484D01*
X185Y171243D01*
X177Y171001D01*
X175Y170759D01*
D11*
X10Y10000D02*
X48Y9128D01*
X161Y8263D01*
X349Y7412D01*
X610Y6579D01*
X943Y5773D01*
X1345Y4999D01*
X1813Y4263D01*
X2344Y3571D01*
X2932Y2927D01*
X3575Y2337D01*
X4267Y1805D01*
X5002Y1336D01*
X5775Y932D01*
X6581Y598D01*
X7412Y335D01*
X8264Y145D01*
X9129Y31D01*
X10000Y-8D01*
X10002Y-8D01*
X181002Y-150D01*
X181874Y-112D01*
X182739Y1D01*
X183591Y190D01*
X184423Y452D01*
X185230Y786D01*
X186004Y1188D01*
X186740Y1657D01*
X187433Y2188D01*
X188077Y2777D01*
X188667Y3420D01*
X189198Y4112D01*
X189667Y4848D01*
X190071Y5622D01*
X190405Y6428D01*
X190668Y7260D01*
X190857Y8112D01*
X190972Y8978D01*
X191010Y9849D01*
X191010Y9850D01*
X191010Y170785D01*
X190972Y171656D01*
X190858Y172521D01*
X190669Y173373D01*
X190407Y174205D01*
X190073Y175011D01*
X189670Y175785D01*
X189202Y176520D01*
X188670Y177213D01*
X188081Y177856D01*
X187438Y178445D01*
X186746Y178976D01*
X186010Y179445D01*
X185236Y179848D01*
X184430Y180182D01*
X183598Y180444D01*
X182746Y180633D01*
X181882Y180747D01*
X181010Y180785D01*
X181009Y180785D01*
X10174Y180760D01*
X9305Y180725D01*
X8442Y180614D01*
X7592Y180428D01*
X6762Y180169D01*
X5958Y179839D01*
X5185Y179439D01*
X4450Y178974D01*
X3759Y178447D01*
X3116Y177861D01*
X2526Y177222D01*
X1995Y176533D01*
X1525Y175801D01*
X1121Y175031D01*
X786Y174228D01*
X522Y173399D01*
X332Y172551D01*
X215Y171689D01*
X175Y170820D01*
X175Y170759D01*
X10Y10000D01*
M02*
